<svg xmlns="http://www.w3.org/2000/svg" xmlns:xlink="http://www.w3.org/1999/xlink" width="500" zoomAndPan="magnify" viewBox="0 0 375 374.999991" height="500" preserveAspectRatio="xMidYMid meet" version="1.0"><path fill="#000000" d="M 8.375 227.675781 L 46.847656 234.269531 C 49.015625 240.941406 51.691406 247.40625 54.875 253.660156 L 32.382812 285.417969 C 32.160156 285.742188 31.992188 286.089844 31.875 286.464844 C 31.761719 286.835938 31.703125 287.21875 31.703125 287.609375 C 31.703125 288 31.761719 288.382812 31.875 288.757812 C 31.992188 289.128906 32.160156 289.476562 32.382812 289.800781 C 39.28125 300.289062 47.160156 309.980469 56.023438 318.871094 C 64.882812 327.765625 74.542969 335.679688 85.003906 342.617188 C 85.328125 342.839844 85.675781 343.007812 86.050781 343.125 C 86.421875 343.238281 86.804688 343.296875 87.195312 343.296875 C 87.585938 343.296875 87.96875 343.238281 88.34375 343.125 C 88.714844 343.007812 89.066406 342.839844 89.386719 342.617188 L 121.226562 320.011719 C 127.480469 323.191406 133.941406 325.867188 140.617188 328.039062 L 147.167969 366.507812 C 147.230469 366.890625 147.34375 367.257812 147.515625 367.609375 C 147.6875 367.957031 147.90625 368.273438 148.171875 368.558594 C 148.4375 368.839844 148.742188 369.078125 149.078125 369.269531 C 149.417969 369.464844 149.777344 369.601562 150.15625 369.6875 C 162.453125 372.246094 174.882812 373.527344 187.441406 373.527344 C 200.003906 373.527344 212.429688 372.246094 224.730469 369.6875 C 225.109375 369.601562 225.46875 369.464844 225.804688 369.269531 C 226.144531 369.078125 226.445312 368.839844 226.710938 368.558594 C 226.976562 368.273438 227.195312 367.957031 227.367188 367.609375 C 227.539062 367.257812 227.652344 366.890625 227.714844 366.507812 L 234.269531 328.039062 C 240.933594 325.855469 247.398438 323.179688 253.660156 320.011719 L 285.652344 342.425781 C 285.972656 342.644531 286.320312 342.8125 286.695312 342.929688 C 287.070312 343.046875 287.453125 343.101562 287.84375 343.101562 C 288.234375 343.101562 288.617188 343.046875 288.988281 342.929688 C 289.363281 342.8125 289.710938 342.644531 290.035156 342.425781 C 300.515625 335.519531 310.203125 327.636719 319.097656 318.777344 C 327.988281 309.917969 335.90625 300.257812 342.851562 289.800781 C 343.074219 289.476562 343.242188 289.128906 343.355469 288.757812 C 343.472656 288.382812 343.53125 288 343.53125 287.609375 C 343.53125 287.21875 343.472656 286.835938 343.355469 286.464844 C 343.242188 286.089844 343.074219 285.742188 342.851562 285.417969 L 320.242188 253.695312 C 323.398438 247.4375 326.058594 240.972656 328.230469 234.308594 L 366.738281 227.714844 C 367.121094 227.648438 367.484375 227.53125 367.828125 227.359375 C 368.175781 227.1875 368.488281 226.96875 368.765625 226.703125 C 369.046875 226.433594 369.28125 226.132812 369.472656 225.796875 C 369.660156 225.460938 369.796875 225.105469 369.882812 224.730469 C 372.414062 212.410156 373.683594 199.960938 373.683594 187.382812 C 373.683594 174.804688 372.414062 162.359375 369.882812 150.039062 C 369.796875 149.660156 369.660156 149.304688 369.472656 148.96875 C 369.28125 148.632812 369.046875 148.332031 368.765625 148.066406 C 368.488281 147.800781 368.175781 147.582031 367.828125 147.40625 C 367.484375 147.234375 367.121094 147.117188 366.738281 147.054688 L 328.269531 140.769531 C 326.070312 134.035156 323.367188 127.507812 320.164062 121.1875 L 342.617188 89.15625 C 342.835938 88.832031 343 88.488281 343.113281 88.117188 C 343.226562 87.75 343.285156 87.371094 343.285156 86.984375 C 343.285156 86.597656 343.226562 86.21875 343.113281 85.847656 C 343 85.476562 342.835938 85.132812 342.617188 84.8125 C 335.734375 74.332031 327.878906 64.640625 319.042969 55.742188 C 310.210938 46.84375 300.578125 38.914062 290.148438 31.953125 C 289.828125 31.734375 289.480469 31.566406 289.105469 31.449219 C 288.730469 31.335938 288.351562 31.277344 287.957031 31.277344 C 287.566406 31.277344 287.1875 31.335938 286.8125 31.449219 C 286.4375 31.566406 286.089844 31.734375 285.769531 31.953125 L 253.8125 54.757812 C 247.535156 51.625 241.070312 48.933594 234.421875 46.691406 L 227.792969 8.144531 C 227.722656 7.765625 227.601562 7.40625 227.429688 7.066406 C 227.253906 6.726562 227.035156 6.417969 226.769531 6.140625 C 226.503906 5.863281 226.203125 5.632812 225.867188 5.445312 C 225.535156 5.257812 225.179688 5.125 224.804688 5.042969 C 212.507812 2.480469 200.078125 1.203125 187.519531 1.203125 C 174.957031 1.203125 162.53125 2.480469 150.234375 5.042969 C 149.855469 5.125 149.5 5.261719 149.164062 5.453125 C 148.828125 5.640625 148.527344 5.875 148.261719 6.15625 C 147.992188 6.4375 147.773438 6.75 147.601562 7.09375 C 147.429688 7.4375 147.3125 7.800781 147.246094 8.183594 L 140.652344 46.730469 C 134.003906 48.964844 127.539062 51.65625 121.265625 54.796875 L 89.269531 32.1875 C 88.945312 31.960938 88.59375 31.789062 88.21875 31.671875 C 87.839844 31.554688 87.457031 31.496094 87.058594 31.496094 C 86.664062 31.496094 86.28125 31.554688 85.902344 31.671875 C 85.527344 31.789062 85.175781 31.960938 84.851562 32.1875 C 74.429688 39.113281 64.804688 47.003906 55.972656 55.863281 C 47.136719 64.722656 39.273438 74.371094 32.382812 84.8125 C 32.164062 85.132812 32 85.476562 31.886719 85.847656 C 31.773438 86.21875 31.714844 86.597656 31.714844 86.984375 C 31.714844 87.371094 31.773438 87.75 31.886719 88.117188 C 32 88.488281 32.164062 88.832031 32.382812 89.15625 L 54.875 120.992188 C 51.644531 127.371094 48.945312 133.960938 46.769531 140.769531 L 8.375 147.207031 C 7.992188 147.269531 7.625 147.382812 7.277344 147.554688 C 6.925781 147.726562 6.609375 147.945312 6.328125 148.210938 C 6.042969 148.476562 5.804688 148.78125 5.613281 149.117188 C 5.417969 149.457031 5.28125 149.8125 5.195312 150.195312 C 2.683594 162.484375 1.429688 174.898438 1.433594 187.445312 C 1.441406 199.988281 2.707031 212.402344 5.234375 224.691406 C 5.320312 225.066406 5.457031 225.421875 5.644531 225.757812 C 5.835938 226.09375 6.070312 226.398438 6.351562 226.664062 C 6.628906 226.929688 6.941406 227.148438 7.289062 227.320312 C 7.632812 227.492188 7.996094 227.613281 8.375 227.675781 Z M 187.5 82.601562 C 189.214844 82.601562 190.925781 82.644531 192.636719 82.726562 C 194.347656 82.8125 196.058594 82.9375 197.761719 83.105469 C 199.46875 83.273438 201.167969 83.484375 202.863281 83.734375 C 204.558594 83.984375 206.246094 84.277344 207.925781 84.613281 C 209.609375 84.945312 211.277344 85.324219 212.941406 85.738281 C 214.605469 86.15625 216.253906 86.613281 217.894531 87.109375 C 219.535156 87.605469 221.160156 88.144531 222.773438 88.722656 C 224.386719 89.296875 225.984375 89.914062 227.570312 90.570312 C 229.152344 91.226562 230.71875 91.921875 232.265625 92.652344 C 233.816406 93.386719 235.347656 94.15625 236.859375 94.964844 C 238.367188 95.773438 239.859375 96.617188 241.328125 97.496094 C 242.800781 98.378906 244.246094 99.292969 245.671875 100.246094 C 247.097656 101.199219 248.496094 102.183594 249.871094 103.207031 C 251.25 104.226562 252.601562 105.28125 253.925781 106.367188 C 255.25 107.453125 256.546875 108.574219 257.816406 109.726562 C 259.085938 110.875 260.324219 112.054688 261.539062 113.269531 C 262.75 114.480469 263.929688 115.71875 265.082031 116.992188 C 266.230469 118.261719 267.351562 119.558594 268.4375 120.882812 C 269.523438 122.207031 270.578125 123.558594 271.601562 124.933594 C 272.621094 126.308594 273.605469 127.710938 274.558594 129.136719 C 275.511719 130.558594 276.429688 132.007812 277.308594 133.476562 C 278.191406 134.945312 279.035156 136.4375 279.84375 137.949219 C 280.648438 139.460938 281.417969 140.988281 282.152344 142.539062 C 282.886719 144.085938 283.578125 145.652344 284.234375 147.238281 C 284.890625 148.820312 285.507812 150.417969 286.085938 152.03125 C 286.660156 153.644531 287.199219 155.273438 287.695312 156.910156 C 288.195312 158.550781 288.652344 160.203125 289.066406 161.863281 C 289.484375 163.527344 289.859375 165.199219 290.191406 166.878906 C 290.527344 168.558594 290.820312 170.246094 291.070312 171.941406 C 291.324219 173.636719 291.53125 175.335938 291.699219 177.042969 C 291.867188 178.75 291.996094 180.457031 292.078125 182.167969 C 292.164062 183.878906 292.207031 185.59375 292.207031 187.304688 C 292.207031 189.019531 292.164062 190.730469 292.078125 192.445312 C 291.996094 194.15625 291.867188 195.863281 291.699219 197.570312 C 291.53125 199.273438 291.324219 200.972656 291.070312 202.667969 C 290.820312 204.363281 290.527344 206.050781 290.191406 207.734375 C 289.859375 209.414062 289.484375 211.085938 289.066406 212.746094 C 288.652344 214.410156 288.195312 216.0625 287.695312 217.699219 C 287.199219 219.339844 286.660156 220.96875 286.085938 222.582031 C 285.507812 224.195312 284.890625 225.792969 284.234375 227.375 C 283.578125 228.957031 282.886719 230.523438 282.152344 232.074219 C 281.417969 233.621094 280.648438 235.152344 279.84375 236.664062 C 279.035156 238.175781 278.191406 239.664062 277.308594 241.136719 C 276.429688 242.605469 275.511719 244.050781 274.558594 245.476562 C 273.605469 246.902344 272.621094 248.300781 271.601562 249.679688 C 270.578125 251.054688 269.523438 252.40625 268.4375 253.730469 C 267.351562 255.054688 266.230469 256.351562 265.082031 257.621094 C 263.929688 258.890625 262.75 260.132812 261.539062 261.34375 C 260.324219 262.554688 259.085938 263.738281 257.816406 264.886719 C 256.546875 266.039062 255.25 267.15625 253.925781 268.246094 C 252.601562 269.332031 251.25 270.386719 249.871094 271.40625 C 248.496094 272.425781 247.097656 273.414062 245.671875 274.367188 C 244.246094 275.316406 242.800781 276.234375 241.328125 277.113281 C 239.859375 277.996094 238.367188 278.839844 236.859375 279.648438 C 235.347656 280.457031 233.816406 281.226562 232.265625 281.957031 C 230.71875 282.691406 229.152344 283.386719 227.570312 284.042969 C 225.984375 284.695312 224.386719 285.3125 222.773438 285.890625 C 221.160156 286.46875 219.535156 287.003906 217.894531 287.503906 C 216.253906 288 214.601562 288.457031 212.941406 288.875 C 211.277344 289.289062 209.609375 289.664062 207.925781 290 C 206.246094 290.332031 204.558594 290.625 202.863281 290.878906 C 201.167969 291.128906 199.46875 291.339844 197.761719 291.507812 C 196.058594 291.675781 194.347656 291.800781 192.636719 291.886719 C 190.925781 291.96875 189.214844 292.011719 187.5 292.011719 C 185.785156 292.011719 184.074219 291.96875 182.363281 291.886719 C 180.652344 291.800781 178.941406 291.675781 177.238281 291.507812 C 175.53125 291.339844 173.832031 291.128906 172.136719 290.878906 C 170.441406 290.625 168.753906 290.332031 167.074219 290 C 165.390625 289.664062 163.722656 289.289062 162.058594 288.875 C 160.394531 288.457031 158.746094 288 157.105469 287.503906 C 155.464844 287.003906 153.839844 286.46875 152.226562 285.890625 C 150.613281 285.3125 149.015625 284.695312 147.429688 284.042969 C 145.847656 283.386719 144.28125 282.691406 142.734375 281.957031 C 141.183594 281.226562 139.652344 280.457031 138.140625 279.648438 C 136.632812 278.839844 135.140625 277.996094 133.671875 277.113281 C 132.199219 276.234375 130.753906 275.316406 129.328125 274.367188 C 127.902344 273.414062 126.503906 272.425781 125.128906 271.40625 C 123.75 270.386719 122.398438 269.332031 121.074219 268.246094 C 119.75 267.15625 118.453125 266.039062 117.183594 264.886719 C 115.914062 263.738281 114.675781 262.554688 113.460938 261.34375 C 112.25 260.132812 111.070312 258.890625 109.917969 257.621094 C 108.769531 256.351562 107.648438 255.054688 106.5625 253.730469 C 105.476562 252.40625 104.421875 251.054688 103.398438 249.679688 C 102.378906 248.300781 101.394531 246.902344 100.441406 245.476562 C 99.488281 244.050781 98.570312 242.605469 97.691406 241.136719 C 96.808594 239.664062 95.964844 238.175781 95.15625 236.664062 C 94.351562 235.152344 93.582031 233.621094 92.847656 232.074219 C 92.113281 230.523438 91.421875 228.957031 90.765625 227.375 C 90.109375 225.792969 89.492188 224.195312 88.914062 222.582031 C 88.339844 220.96875 87.800781 219.339844 87.304688 217.699219 C 86.804688 216.0625 86.347656 214.410156 85.933594 212.746094 C 85.515625 211.085938 85.140625 209.414062 84.804688 207.734375 C 84.472656 206.050781 84.179688 204.363281 83.929688 202.667969 C 83.675781 200.972656 83.46875 199.273438 83.300781 197.570312 C 83.132812 195.863281 83.003906 194.15625 82.921875 192.445312 C 82.835938 190.730469 82.792969 189.019531 82.792969 187.304688 C 82.792969 185.59375 82.835938 183.878906 82.921875 182.167969 C 83.003906 180.457031 83.132812 178.75 83.300781 177.042969 C 83.46875 175.335938 83.675781 173.636719 83.929688 171.941406 C 84.179688 170.246094 84.472656 168.558594 84.804688 166.878906 C 85.140625 165.199219 85.515625 163.527344 85.933594 161.863281 C 86.347656 160.203125 86.804688 158.550781 87.304688 156.910156 C 87.800781 155.273438 88.339844 153.644531 88.914062 152.03125 C 89.492188 150.417969 90.109375 148.820312 90.765625 147.238281 C 91.421875 145.652344 92.113281 144.089844 92.847656 142.539062 C 93.582031 140.988281 94.351562 139.460938 95.160156 137.949219 C 95.964844 136.4375 96.808594 134.945312 97.691406 133.476562 C 98.570312 132.007812 99.488281 130.558594 100.441406 129.136719 C 101.394531 127.710938 102.378906 126.308594 103.398438 124.933594 C 104.421875 123.558594 105.476562 122.207031 106.5625 120.882812 C 107.648438 119.558594 108.769531 118.261719 109.917969 116.992188 C 111.070312 115.71875 112.25 114.480469 113.460938 113.269531 C 114.675781 112.054688 115.914062 110.875 117.183594 109.726562 C 118.453125 108.574219 119.75 107.453125 121.074219 106.367188 C 122.398438 105.28125 123.75 104.226562 125.128906 103.207031 C 126.503906 102.183594 127.902344 101.199219 129.328125 100.246094 C 130.753906 99.292969 132.199219 98.378906 133.671875 97.496094 C 135.140625 96.617188 136.632812 95.773438 138.140625 94.964844 C 139.652344 94.15625 141.183594 93.386719 142.734375 92.652344 C 144.28125 91.921875 145.847656 91.226562 147.429688 90.570312 C 149.015625 89.914062 150.613281 89.296875 152.226562 88.722656 C 153.839844 88.144531 155.464844 87.605469 157.105469 87.109375 C 158.746094 86.613281 160.394531 86.15625 162.058594 85.738281 C 163.722656 85.324219 165.390625 84.945312 167.074219 84.613281 C 168.753906 84.277344 170.441406 83.984375 172.136719 83.734375 C 173.832031 83.484375 175.53125 83.273438 177.238281 83.105469 C 178.941406 82.9375 180.652344 82.8125 182.363281 82.726562 C 184.074219 82.644531 185.785156 82.601562 187.5 82.601562 Z M 117.695312 223.796875 C 118.589844 223.84375 119.480469 223.84375 120.371094 223.796875 C 121.226562 223.847656 122.078125 223.847656 122.933594 223.796875 C 123.453125 223.753906 123.957031 223.636719 124.445312 223.449219 C 124.765625 223.304688 125.035156 223.097656 125.257812 222.828125 C 125.449219 222.566406 125.589844 222.28125 125.683594 221.976562 L 131.65625 204.523438 L 161.90625 204.523438 L 168.109375 222.207031 C 168.242188 222.503906 168.394531 222.789062 168.574219 223.0625 C 168.796875 223.316406 169.070312 223.496094 169.390625 223.605469 C 169.894531 223.761719 170.410156 223.855469 170.941406 223.875 L 173.734375 223.875 C 174.652344 223.925781 175.570312 223.925781 176.488281 223.875 C 177.03125 223.867188 177.523438 223.699219 177.960938 223.371094 C 178.320312 223.078125 178.460938 222.703125 178.386719 222.246094 C 178.34375 221.546875 178.1875 220.875 177.921875 220.230469 L 153.644531 152.753906 C 153.492188 152.386719 153.285156 152.050781 153.023438 151.746094 C 152.710938 151.421875 152.335938 151.203125 151.898438 151.085938 C 151.28125 150.902344 150.644531 150.800781 150 150.777344 L 144.222656 150.777344 C 143.613281 150.800781 143.019531 150.90625 142.4375 151.085938 C 142.03125 151.195312 141.683594 151.402344 141.390625 151.707031 C 141.105469 151.996094 140.898438 152.332031 140.769531 152.714844 L 116.457031 220.113281 C 116.183594 220.746094 116.03125 221.40625 115.988281 222.089844 C 115.914062 222.546875 116.046875 222.933594 116.378906 223.253906 C 116.765625 223.558594 117.207031 223.742188 117.695312 223.796875 Z M 146.546875 160.664062 L 159.191406 196.847656 L 133.984375 196.847656 Z M 191.066406 223.449219 L 192.582031 223.796875 C 194.132812 223.953125 195.683594 223.953125 197.234375 223.796875 L 198.667969 223.449219 C 198.992188 223.34375 199.261719 223.164062 199.484375 222.90625 C 199.644531 222.671875 199.722656 222.414062 199.714844 222.128906 L 199.714844 195.992188 L 207.976562 195.992188 C 211.949219 196.09375 215.824219 195.535156 219.609375 194.324219 C 222.675781 193.316406 225.402344 191.726562 227.792969 189.554688 C 230.082031 187.453125 231.800781 184.957031 232.949219 182.070312 C 234.179688 178.914062 234.773438 175.644531 234.734375 172.257812 C 234.757812 169.699219 234.371094 167.207031 233.570312 164.773438 C 232.785156 162.582031 231.648438 160.59375 230.15625 158.804688 C 228.671875 157.0625 226.9375 155.613281 224.960938 154.460938 C 223.082031 153.351562 221.078125 152.550781 218.949219 152.054688 C 217.273438 151.671875 215.582031 151.398438 213.871094 151.242188 C 212.359375 151.097656 210.847656 151.03125 209.332031 151.046875 L 193.820312 151.046875 C 192.832031 151.042969 191.953125 151.351562 191.183594 151.976562 C 190.75 152.386719 190.425781 152.871094 190.214844 153.429688 C 190.003906 153.988281 189.925781 154.5625 189.980469 155.15625 L 189.980469 222.207031 C 189.976562 222.492188 190.054688 222.75 190.214844 222.984375 C 190.445312 223.238281 190.730469 223.394531 191.066406 223.449219 Z M 199.714844 158.996094 L 208.636719 158.996094 C 210.339844 158.996094 212.03125 159.125 213.714844 159.382812 C 215.515625 159.675781 217.199219 160.296875 218.757812 161.246094 C 220.445312 162.371094 221.738281 163.84375 222.632812 165.667969 C 223.84375 167.988281 224.398438 170.457031 224.300781 173.074219 C 224.316406 175.136719 223.980469 177.140625 223.292969 179.085938 C 222.660156 180.890625 221.679688 182.480469 220.347656 183.855469 C 218.941406 185.242188 217.3125 186.273438 215.460938 186.957031 C 213.113281 187.796875 210.699219 188.171875 208.207031 188.082031 L 199.714844 188.082031 Z M 249.546875 222.90625 C 249.484375 222.671875 249.484375 222.441406 249.546875 222.207031 L 249.546875 152.40625 C 249.535156 152.109375 249.628906 151.851562 249.820312 151.628906 C 250.023438 151.347656 250.296875 151.167969 250.632812 151.085938 L 252.144531 150.738281 C 252.882812 150.691406 253.621094 150.691406 254.355469 150.738281 C 255.132812 150.6875 255.90625 150.6875 256.683594 150.738281 L 258.195312 151.085938 C 258.515625 151.179688 258.773438 151.359375 258.972656 151.628906 C 259.132812 151.863281 259.210938 152.121094 259.203125 152.40625 L 259.203125 222.207031 C 259.210938 222.492188 259.132812 222.75 258.972656 222.984375 C 258.773438 223.253906 258.515625 223.433594 258.195312 223.527344 L 256.683594 223.875 C 255.90625 223.925781 255.132812 223.925781 254.355469 223.875 C 253.59375 223.921875 252.832031 223.921875 252.066406 223.875 L 250.554688 223.527344 C 250.117188 223.488281 249.78125 223.28125 249.546875 222.90625 Z M 249.546875 222.90625 " fill-opacity="1" fill-rule="nonzero"/></svg>