<svg xmlns="http://www.w3.org/2000/svg" xmlns:xlink="http://www.w3.org/1999/xlink" width="500" zoomAndPan="magnify" viewBox="0 0 375 374.999991" height="500" preserveAspectRatio="xMidYMid meet" version="1.0"><path fill="#ffffff" d="M 367.375 228.324219 C 365.816406 221.257812 359.40625 213.015625 346.480469 213.015625 C 343.835938 213.015625 340.949219 213.347656 337.65625 214.03125 C 331.625 215.277344 326.484375 215.878906 321.957031 216.085938 C 357.183594 156.085938 380.050781 72.742188 357.40625 43.808594 C 327.566406 5.683594 287.398438 -0.0078125 266.117188 -0.0078125 L 264.113281 0 C 256.199219 0.128906 247.980469 1.097656 239.714844 2.890625 L 209.175781 9.484375 C 205.019531 8.964844 200.78125 8.597656 196.367188 8.523438 L 195.976562 8.523438 L 194.679688 8.515625 C 181.101562 8.515625 168.71875 11.394531 157.683594 16.808594 L 147.019531 12.605469 C 132.363281 6.828125 110.304688 -0.0507812 88.488281 -0.0507812 C 87.261719 -0.0507812 86.042969 -0.0273438 84.8125 0.015625 C 63.320312 0.792969 44.859375 8.949219 31.417969 23.597656 C 14.644531 41.890625 7.011719 68.640625 8.738281 103.125 C 8.824219 104.90625 29.6875 281.25 88.828125 281.25 L 89.042969 281.25 L 89.585938 281.242188 C 97.265625 281.054688 104.585938 277.96875 111.429688 272.0625 C 116.65625 275.984375 123.414062 278.300781 129.710938 279.222656 C 133.871094 280.203125 141.351562 281.589844 150.320312 281.589844 C 161.261719 281.589844 171.132812 279.347656 179.636719 275.300781 C 179.628906 282.800781 179.585938 292.296875 179.5 304.433594 L 179.492188 305.070312 L 179.535156 305.710938 C 180.363281 317.804688 182.449219 328.703125 185.59375 337.253906 C 194.550781 361.621094 210.019531 375.042969 229.15625 375.042969 C 229.945312 375.042969 230.757812 375.015625 231.574219 374.964844 C 247.308594 373.996094 263.253906 365.15625 274.222656 351.339844 C 286.09375 336.382812 288.839844 320.597656 289.894531 308.503906 L 289.964844 307.765625 L 289.964844 272.25 L 290.84375 272.335938 L 294.558594 272.660156 L 294.917969 272.691406 L 295.273438 272.710938 C 296.332031 272.761719 297.421875 272.777344 298.519531 272.777344 C 311.363281 272.777344 327.175781 269.445312 337.863281 264.476562 C 348.082031 259.738281 371.433594 246.714844 367.375 228.324219 Z M 367.375 228.324219 " fill-opacity="1" fill-rule="nonzero"/><path fill="#0277bd" d="M 272.917969 264.203125 C 272.917969 262.457031 273.019531 261 273.074219 259.390625 C 272.988281 257.25 272.917969 255.683594 272.917969 255.683594 C 272.917969 255.683594 273.019531 255.605469 273.191406 255.496094 C 274.460938 232.714844 280.742188 223.933594 287.46875 218.933594 C 286.53125 217.628906 285.449219 216.222656 284.433594 214.882812 C 281.59375 211.160156 278.058594 206.539062 274.273438 200.617188 L 273.574219 199.269531 C 273.003906 197.871094 271.625 195.460938 269.867188 192.289062 C 259.785156 174.050781 238.800781 136.109375 253.164062 112.140625 C 259.453125 101.640625 271.25 95.589844 288.285156 94.097656 C 281.324219 74.300781 255.234375 26.546875 196.085938 25.566406 C 196.070312 25.566406 196.050781 25.566406 196.035156 25.566406 C 144.550781 24.734375 127.632812 71.523438 122.125 99.476562 C 129.710938 96.265625 138.371094 94.3125 146.296875 94.3125 C 146.417969 94.3125 146.542969 94.3125 146.664062 94.3125 C 166.179688 94.457031 179.605469 104.871094 183.507812 122.898438 C 186.363281 136.125 187.734375 147.699219 187.699219 158.292969 C 187.613281 181.464844 182.945312 193.652344 178.820312 204.410156 L 177.507812 207.886719 C 176.449219 210.734375 175.332031 213.382812 174.277344 215.871094 C 173.203125 218.410156 172.257812 220.671875 171.566406 222.707031 C 175.691406 223.644531 178.929688 224.964844 181.15625 225.945312 L 182.441406 226.507812 C 182.84375 226.679688 183.242188 226.875 183.609375 227.097656 C 190.835938 231.496094 195.335938 238.253906 196.300781 246.128906 C 196.820312 250.371094 196.734375 279.308594 196.554688 304.550781 C 197.296875 315.503906 199.15625 324.699219 201.609375 331.363281 C 205.09375 340.859375 213.804688 358.984375 230.535156 357.945312 C 242.210938 357.222656 253.4375 350.113281 260.886719 340.738281 C 268.878906 330.671875 271.828125 319.542969 272.9375 307.003906 L 272.9375 264.203125 Z M 272.917969 264.203125 " fill-opacity="1" fill-rule="nonzero"/><path fill="#0277bd" d="M 120.480469 220.882812 C 106.734375 206.539062 100.035156 187.246094 102.550781 169.269531 C 104.980469 151.925781 103.605469 134.949219 102.863281 125.820312 C 102.617188 122.777344 102.457031 120.511719 102.464844 119.257812 C 102.464844 119.191406 102.480469 119.128906 102.488281 119.0625 C 102.488281 119.027344 102.472656 119.003906 102.472656 118.96875 C 103.503906 93.222656 113.433594 52.601562 140.765625 28.457031 C 127.453125 23.214844 105.769531 16.304688 85.417969 17.046875 C 53.527344 18.203125 22.65625 40.261719 25.761719 102.273438 C 26.925781 125.539062 53.21875 265.082031 89.167969 264.203125 C 94.308594 264.078125 99.644531 260.777344 105.125 254.183594 C 113.792969 243.757812 122.210938 234.308594 128.203125 227.726562 C 125.519531 225.691406 122.925781 223.441406 120.480469 220.882812 Z M 307.207031 99.980469 C 307.332031 101.292969 307.222656 102.417969 307.019531 103.457031 C 307.28125 111.296875 306.4375 118.910156 305.578125 126.273438 C 304.945312 131.691406 304.300781 137.292969 304.121094 142.910156 C 303.941406 148.40625 304.71875 153.835938 305.535156 159.578125 C 307.453125 173.027344 309.445312 188.207031 299.015625 205.917969 C 300.933594 208.441406 302.621094 210.785156 303.96875 213.050781 C 343.257812 149.34375 359.09375 73.609375 343.980469 54.308594 C 321.113281 25.089844 289.460938 16.636719 264.386719 17.046875 C 256.539062 17.171875 249.40625 18.230469 243.3125 19.550781 C 286.574219 40.515625 305.84375 85.449219 307.207031 99.980469 Z M 341.101562 230.71875 C 318.386719 235.40625 307.460938 232.910156 302.160156 229.644531 C 301.308594 230.257812 300.457031 230.777344 299.664062 231.265625 C 296.492188 233.183594 291.472656 236.234375 290.246094 254.972656 C 290.953125 255.109375 291.574219 255.1875 292.34375 255.347656 L 296.050781 255.683594 C 307.300781 256.191406 322.035156 253.039062 330.675781 249.027344 C 349.300781 240.382812 359.449219 226.933594 341.101562 230.71875 Z M 179.363281 248.171875 C 179.050781 245.632812 177.675781 243.578125 175.171875 241.933594 L 174.25 241.535156 C 171.175781 240.179688 167.6875 238.636719 162.125 238.636719 L 162.089844 238.636719 C 161.007812 238.722656 159.933594 238.796875 158.851562 238.796875 C 158.40625 238.796875 157.972656 238.738281 157.53125 238.722656 C 153.488281 241.832031 147.746094 244.234375 133.53125 247.160156 C 108.132812 253.628906 123.125 261.265625 132.863281 262.449219 C 142.292969 264.808594 164.699219 267.683594 179.578125 255.554688 C 179.535156 251.734375 179.46875 249.109375 179.363281 248.171875 Z M 179.363281 248.171875 " fill-opacity="1" fill-rule="nonzero"/><path fill="#0277bd" d="M 167.925781 132.109375 C 165.4375 134.683594 161.511719 136.933594 157.171875 136.234375 C 150.113281 135.09375 144.703125 126.578125 145.09375 123.382812 C 145.46875 120.195312 151.496094 118.535156 158.542969 119.675781 C 160.988281 120.078125 163.214844 120.765625 165.089844 121.621094 C 162.363281 115.753906 157.425781 112.371094 149.902344 111.546875 C 136.5625 110.0625 122.40625 117.035156 119.5625 120.894531 C 119.621094 121.832031 119.730469 123.035156 119.84375 124.449219 C 120.636719 134.222656 122.101562 152.4375 119.417969 171.640625 C 117.644531 184.296875 122.765625 198.648438 132.769531 209.097656 C 139.222656 215.828125 146.757812 220.089844 154.1875 221.351562 C 155.136719 217.277344 156.824219 213.308594 158.5625 209.207031 C 159.523438 206.949219 160.546875 204.546875 161.511719 201.945312 L 162.890625 198.308594 C 166.667969 188.464844 170.5625 178.277344 170.636719 158.222656 C 170.671875 150.511719 169.726562 141.707031 167.925781 132.109375 Z M 288.660156 161.992188 C 287.773438 155.777344 286.863281 149.34375 287.082031 142.363281 C 287.28125 136.039062 287.976562 130.074219 288.652344 124.304688 C 289.179688 119.761719 289.589844 115.398438 289.828125 111.09375 C 278.84375 112.003906 271.546875 115.175781 268.085938 120.535156 C 269.519531 120.050781 271.136719 119.667969 272.925781 119.4375 C 280.53125 118.449219 286.078125 120.640625 286.71875 124.867188 C 287.1875 127.960938 284.5625 130.875 283.410156 131.992188 C 281.050781 134.285156 278.074219 135.757812 275.050781 136.152344 C 274.503906 136.21875 273.949219 136.253906 273.414062 136.253906 C 270.40625 136.253906 267.53125 135.222656 265.324219 133.695312 C 266.28125 150.511719 278.679688 173.003906 284.78125 184.039062 C 286.085938 186.402344 287.09375 188.285156 287.925781 189.902344 C 291.277344 180.367188 290.039062 171.671875 288.660156 161.992188 Z M 288.660156 161.992188 " fill-opacity="1" fill-rule="nonzero"/></svg>