<svg xmlns="http://www.w3.org/2000/svg" xmlns:xlink="http://www.w3.org/1999/xlink" width="500" zoomAndPan="magnify" viewBox="0 0 375 374.999991" height="500" preserveAspectRatio="xMidYMid meet" version="1.0"><path fill="#000000" d="M 165.808594 10.515625 C 82.480469 19.738281 14.582031 86.898438 4.523438 170.003906 C 4.199219 172.613281 3.929688 175.226562 3.71875 177.847656 C 3.503906 180.46875 3.347656 183.089844 3.25 185.71875 C 3.148438 188.34375 3.105469 190.972656 3.117188 193.601562 C 3.128906 196.230469 3.199219 198.859375 3.324219 201.484375 C 3.449219 204.109375 3.628906 206.734375 3.867188 209.351562 C 4.105469 211.96875 4.398438 214.582031 4.75 217.1875 C 5.097656 219.792969 5.503906 222.390625 5.964844 224.976562 C 6.425781 227.566406 6.941406 230.144531 7.515625 232.710938 C 8.085938 235.277344 8.710938 237.828125 9.394531 240.367188 C 10.074219 242.90625 10.808594 245.429688 11.601562 247.9375 C 12.390625 250.445312 13.230469 252.9375 14.128906 255.410156 C 15.023438 257.878906 15.972656 260.332031 16.976562 262.761719 C 17.976562 265.195312 19.03125 267.601562 20.136719 269.988281 C 21.238281 272.375 22.394531 274.738281 23.601562 277.074219 C 24.808594 279.410156 26.0625 281.71875 27.371094 284.003906 C 28.675781 286.285156 30.027344 288.539062 31.429688 290.765625 C 32.832031 292.988281 34.28125 295.183594 35.777344 297.347656 C 37.273438 299.507812 38.816406 301.640625 40.402344 303.734375 C 41.992188 305.832031 43.621094 307.894531 45.296875 309.921875 C 46.976562 311.949219 48.695312 313.9375 50.453125 315.894531 C 52.214844 317.847656 54.019531 319.761719 55.863281 321.636719 C 57.707031 323.515625 59.589844 325.351562 61.511719 327.144531 C 63.433594 328.941406 65.394531 330.695312 67.390625 332.40625 C 69.390625 334.117188 71.421875 335.785156 73.492188 337.410156 C 75.558594 339.035156 77.664062 340.617188 79.800781 342.152344 C 81.9375 343.6875 84.105469 345.175781 86.308594 346.617188 C 88.507812 348.058594 90.738281 349.453125 93 350.796875 C 95.261719 352.144531 97.546875 353.441406 99.863281 354.691406 C 102.179688 355.9375 104.523438 357.136719 106.890625 358.285156 C 109.257812 359.433594 111.648438 360.53125 114.066406 361.578125 C 116.480469 362.621094 118.914062 363.617188 121.371094 364.558594 C 123.832031 365.5 126.308594 366.386719 128.800781 367.222656 C 138 368.691406 140.9375 363 140.9375 358.050781 L 140.9375 327.023438 C 90.039062 338.066406 79.203125 302.441406 79.203125 302.441406 C 70.773438 281.144531 58.808594 275.453125 58.808594 275.453125 C 42.078125 264.074219 60.109375 264.449219 60.109375 264.449219 C 78.476562 265.75 88.21875 283.355469 88.21875 283.355469 C 104.203125 311.25 131.207031 302.984375 141.679688 298.582031 C 143.332031 286.652344 148.183594 278.574219 153.257812 273.984375 C 112.398438 269.398438 69.640625 253.613281 69.640625 183.699219 C 69.640625 163.324219 76.628906 146.992188 88.570312 133.960938 C 86.734375 129.375 80.296875 110.289062 90.402344 85.511719 C 90.402344 85.511719 105.84375 80.546875 140.9375 104.234375 C 148.425781 102.21875 156.015625 100.703125 163.703125 99.6875 C 171.390625 98.671875 179.113281 98.164062 186.871094 98.164062 C 194.625 98.164062 202.347656 98.671875 210.035156 99.6875 C 217.722656 100.703125 225.3125 102.21875 232.800781 104.234375 C 267.921875 80.546875 283.335938 85.511719 283.335938 85.511719 C 293.429688 110.289062 287.003906 129.375 285.167969 133.960938 C 297.109375 146.953125 304.097656 163.324219 304.097656 183.699219 C 304.097656 253.792969 261.09375 269.21875 220.128906 273.804688 C 226.738281 279.496094 232.800781 290.695312 232.800781 307.753906 L 232.800781 358.050781 C 232.800781 363 235.738281 368.875 245.117188 367.222656 C 247.78125 366.332031 250.421875 365.378906 253.042969 364.367188 C 255.664062 363.355469 258.257812 362.285156 260.828125 361.152344 C 263.398438 360.019531 265.945312 358.832031 268.460938 357.585938 C 270.976562 356.335938 273.460938 355.03125 275.917969 353.671875 C 278.375 352.308594 280.796875 350.890625 283.191406 349.421875 C 285.582031 347.949219 287.9375 346.421875 290.257812 344.839844 C 292.578125 343.261719 294.863281 341.628906 297.109375 339.945312 C 299.355469 338.257812 301.5625 336.523438 303.730469 334.738281 C 305.898438 332.953125 308.019531 331.117188 310.105469 329.234375 C 312.1875 327.351562 314.226562 325.421875 316.21875 323.445312 C 318.214844 321.472656 320.160156 319.449219 322.0625 317.386719 C 323.964844 315.320312 325.816406 313.210938 327.621094 311.0625 C 329.425781 308.910156 331.179688 306.722656 332.886719 304.492188 C 334.589844 302.261719 336.242188 299.992188 337.84375 297.6875 C 339.441406 295.378906 340.988281 293.039062 342.480469 290.660156 C 343.972656 288.285156 345.410156 285.875 346.792969 283.433594 C 348.175781 280.988281 349.5 278.515625 350.769531 276.011719 C 352.039062 273.511719 353.25 270.980469 354.402344 268.421875 C 355.554688 265.863281 356.648438 263.277344 357.683594 260.667969 C 358.71875 258.058594 359.691406 255.429688 360.605469 252.777344 C 361.519531 250.121094 362.371094 247.449219 363.160156 244.757812 C 363.953125 242.066406 364.679688 239.355469 365.347656 236.628906 C 366.015625 233.902344 366.617188 231.164062 367.160156 228.410156 C 367.699219 225.65625 368.175781 222.894531 368.589844 220.117188 C 369.003906 217.34375 369.355469 214.558594 369.640625 211.769531 C 369.929688 208.976562 370.152344 206.179688 370.308594 203.378906 C 370.46875 200.578125 370.5625 197.773438 370.589844 194.96875 C 370.621094 192.164062 370.585938 189.359375 370.488281 186.554688 C 370.386719 183.75 370.222656 180.949219 369.996094 178.152344 C 369.769531 175.355469 369.476562 172.566406 369.121094 169.785156 C 368.765625 167 368.347656 164.226562 367.863281 161.460938 C 367.382812 158.699219 366.835938 155.945312 366.226562 153.207031 C 365.617188 150.46875 364.945312 147.746094 364.210938 145.035156 C 363.480469 142.328125 362.683594 139.636719 361.824219 136.964844 C 360.96875 134.292969 360.050781 131.644531 359.070312 129.011719 C 358.09375 126.382812 357.054688 123.777344 355.953125 121.195312 C 354.855469 118.613281 353.699219 116.054688 352.484375 113.527344 C 351.269531 110.996094 349.996094 108.496094 348.664062 106.027344 C 347.332031 103.554688 345.949219 101.113281 344.503906 98.707031 C 343.0625 96.300781 341.566406 93.925781 340.015625 91.585938 C 338.464844 89.246094 336.859375 86.945312 335.203125 84.679688 C 333.546875 82.414062 331.835938 80.1875 330.078125 78 C 328.320312 75.8125 326.511719 73.664062 324.652344 71.558594 C 322.796875 69.457031 320.890625 67.394531 318.9375 65.375 C 316.988281 63.359375 314.988281 61.386719 312.949219 59.460938 C 310.90625 57.535156 308.820312 55.65625 306.691406 53.824219 C 304.5625 51.992188 302.394531 50.210938 300.183594 48.480469 C 297.972656 46.75 295.722656 45.070312 293.4375 43.441406 C 291.148438 41.8125 288.824219 40.238281 286.464844 38.714844 C 284.105469 37.191406 281.710938 35.726562 279.285156 34.3125 C 276.859375 32.898438 274.398438 31.542969 271.910156 30.242188 C 269.421875 28.941406 266.902344 27.699219 264.355469 26.515625 C 261.8125 25.328125 259.238281 24.203125 256.640625 23.136719 C 254.042969 22.070312 251.421875 21.0625 248.777344 20.113281 C 246.132812 19.167969 243.46875 18.28125 240.785156 17.457031 C 238.097656 16.628906 235.398438 15.867188 232.675781 15.164062 C 229.957031 14.464844 227.222656 13.824219 224.472656 13.246094 C 221.722656 12.671875 218.964844 12.15625 216.191406 11.707031 C 213.417969 11.257812 210.636719 10.871094 207.847656 10.546875 C 205.054688 10.226562 202.257812 9.964844 199.457031 9.769531 C 196.65625 9.578125 193.851562 9.445312 191.042969 9.378906 C 188.234375 9.3125 185.425781 9.3125 182.617188 9.371094 C 179.808594 9.433594 177.003906 9.5625 174.199219 9.75 C 171.398438 9.941406 168.601562 10.195312 165.808594 10.515625 Z M 165.808594 10.515625 " fill-opacity="1" fill-rule="nonzero"/></svg>