<svg xmlns="http://www.w3.org/2000/svg" xmlns:xlink="http://www.w3.org/1999/xlink" width="500" zoomAndPan="magnify" viewBox="0 0 375 374.999991" height="500" preserveAspectRatio="xMidYMid meet" version="1.0"><defs><clipPath id="f68ec2fff8"><path d="M 1.761719 4.40625 L 375 4.40625 L 375 370.40625 L 1.761719 370.40625 Z M 1.761719 4.40625 " clip-rule="nonzero"/></clipPath></defs><g clip-path="url(#f68ec2fff8)"><path fill="#007acc" d="M -347.46875 527.253906 L -356.621094 527.253906 L -393.226562 426.792969 L -382.847656 426.792969 L -354.277344 507.164062 L -352.9375 511.628906 C -352.9375 513.191406 -352.265625 514.753906 -351.820312 516.425781 C -351.566406 514.957031 -351.234375 513.507812 -350.816406 512.074219 C -350.816406 510.511719 -349.921875 508.726562 -349.253906 506.941406 L -319.566406 426.570312 L -309.519531 426.570312 Z M -291.214844 437.175781 C -292.042969 437.160156 -292.84375 436.996094 -293.613281 436.6875 C -294.378906 436.382812 -295.070312 435.949219 -295.679688 435.386719 C -296.261719 434.730469 -296.6875 433.984375 -296.957031 433.148438 C -297.230469 432.316406 -297.324219 431.460938 -297.242188 430.589844 C -297.261719 429.742188 -297.105469 428.929688 -296.773438 428.152344 C -296.441406 427.375 -295.96875 426.699219 -295.347656 426.125 C -294.753906 425.53125 -294.070312 425.070312 -293.296875 424.742188 C -292.527344 424.414062 -291.722656 424.242188 -290.882812 424.226562 C -290.027344 424.109375 -289.171875 424.109375 -288.316406 424.226562 C -287.542969 424.566406 -286.835938 425.011719 -286.195312 425.566406 C -285.617188 426.148438 -285.171875 426.820312 -284.855469 427.574219 C -284.496094 428.394531 -284.308594 429.25 -284.296875 430.140625 C -284.179688 430.996094 -284.179688 431.855469 -284.296875 432.710938 C -284.652344 433.472656 -285.136719 434.140625 -285.746094 434.71875 C -286.320312 435.378906 -287.027344 435.824219 -287.867188 436.058594 C -288.867188 436.785156 -289.980469 437.160156 -291.214844 437.175781 Z M -295.679688 527.253906 L -295.679688 455.371094 L -286.082031 455.371094 L -286.082031 527.253906 Z M -267.554688 514.308594 C -264.714844 516.511719 -261.589844 518.1875 -258.179688 519.328125 C -256.527344 520 -254.816406 520.445312 -253.046875 520.667969 C -251.445312 520.828125 -249.847656 520.828125 -248.246094 520.667969 C -237.53125 520.667969 -232.175781 516.652344 -232.175781 508.613281 C -232.175781 506.960938 -232.546875 505.398438 -233.292969 503.925781 C -234.15625 502.511719 -235.234375 501.28125 -236.527344 500.242188 C -238.0625 499.164062 -239.699219 498.269531 -241.4375 497.5625 C -243.585938 496.453125 -245.78125 495.449219 -248.023438 494.550781 C -251.003906 493.414062 -253.871094 492.039062 -256.617188 490.417969 C -258.789062 489.152344 -260.761719 487.628906 -262.53125 485.84375 C -264.046875 484.246094 -265.199219 482.421875 -265.992188 480.371094 C -266.738281 478.164062 -267.109375 475.894531 -267.109375 473.5625 C -267.179688 470.542969 -266.472656 467.714844 -264.988281 465.082031 C -263.582031 462.5625 -261.722656 460.441406 -259.40625 458.71875 C -256.949219 456.964844 -254.269531 455.664062 -251.371094 454.8125 C -248.199219 453.910156 -244.960938 453.460938 -241.664062 453.472656 C -235.953125 453.320312 -230.523438 454.476562 -225.367188 456.933594 L -225.367188 466.421875 C -227.949219 464.710938 -230.722656 463.410156 -233.6875 462.515625 C -236.652344 461.625 -239.683594 461.175781 -242.777344 461.171875 C -244.867188 461.164062 -246.914062 461.460938 -248.917969 462.066406 C -250.660156 462.554688 -252.257812 463.335938 -253.714844 464.410156 C -254.910156 465.484375 -255.914062 466.710938 -256.730469 468.09375 C -257.464844 469.609375 -257.835938 471.210938 -257.84375 472.894531 C -257.863281 474.515625 -257.566406 476.078125 -256.953125 477.582031 C -256.335938 478.945312 -255.480469 480.136719 -254.386719 481.15625 C -252.957031 482.394531 -251.394531 483.4375 -249.699219 484.28125 C -247.800781 485.394531 -245.457031 486.289062 -242.777344 487.40625 L -233.847656 491.535156 C -231.535156 492.746094 -229.453125 494.269531 -227.597656 496.113281 C -225.957031 497.613281 -224.730469 499.398438 -223.917969 501.46875 C -223.074219 503.699219 -222.664062 506.007812 -222.6875 508.390625 C -222.621094 511.425781 -223.292969 514.292969 -224.699219 516.984375 C -226.070312 519.5625 -227.929688 521.722656 -230.277344 523.460938 C -232.804688 525.238281 -235.558594 526.539062 -238.535156 527.367188 C -241.972656 528.289062 -245.46875 528.734375 -249.027344 528.707031 C -252.230469 528.792969 -255.386719 528.449219 -258.492188 527.671875 C -261.601562 526.894531 -264.546875 525.714844 -267.332031 524.128906 Z M -158.179688 527.253906 L -158.179688 514.976562 C -158.667969 516.03125 -159.230469 517.042969 -159.867188 518.015625 C -160.503906 518.988281 -161.207031 519.914062 -161.972656 520.785156 C -162.742188 521.65625 -163.570312 522.464844 -164.457031 523.21875 C -165.34375 523.96875 -166.28125 524.652344 -167.265625 525.269531 C -168.253906 525.886719 -169.277344 526.425781 -170.339844 526.894531 C -171.40625 527.363281 -172.496094 527.75 -173.617188 528.0625 C -174.738281 528.371094 -175.875 528.597656 -177.027344 528.746094 C -178.179688 528.890625 -179.339844 528.953125 -180.5 528.929688 C -197.578125 528.929688 -206.171875 518.4375 -206.171875 497.675781 L -206.171875 455.257812 L -197.242188 455.257812 L -197.242188 495.777344 C -197.507812 499.121094 -197.25 502.421875 -196.46875 505.683594 C -195.6875 508.945312 -194.417969 512.003906 -192.664062 514.863281 C -191.839844 515.925781 -190.902344 516.867188 -189.84375 517.695312 C -188.785156 518.523438 -187.644531 519.210938 -186.417969 519.753906 C -185.191406 520.300781 -183.917969 520.6875 -182.59375 520.917969 C -181.273438 521.148438 -179.941406 521.214844 -178.601562 521.117188 C -175.648438 521.117188 -172.820312 520.523438 -170.121094 519.328125 C -167.550781 518.097656 -165.355469 516.386719 -163.535156 514.195312 C -161.636719 511.839844 -160.183594 509.234375 -159.183594 506.382812 C -158.15625 503.109375 -157.671875 499.761719 -157.730469 496.335938 L -157.730469 455.371094 L -148.804688 455.371094 L -148.804688 527.253906 Z M -84.515625 527.253906 L -84.515625 514.53125 C -85.570312 516.796875 -86.914062 518.878906 -88.542969 520.773438 C -90.171875 522.671875 -92.03125 524.308594 -94.113281 525.691406 C -96.179688 526.953125 -98.378906 527.90625 -100.710938 528.550781 C -103.046875 529.199219 -105.421875 529.507812 -107.84375 529.488281 C -111.042969 529.496094 -114.167969 529.011719 -117.21875 528.035156 C -119.855469 527.113281 -122.199219 525.699219 -124.25 523.792969 C -126.261719 521.980469 -127.789062 519.824219 -128.824219 517.320312 C -129.886719 514.632812 -130.410156 511.839844 -130.386719 508.949219 C -130.457031 507.515625 -130.378906 506.09375 -130.148438 504.675781 C -129.917969 503.261719 -129.546875 501.886719 -129.027344 500.550781 C -128.507812 499.210938 -127.855469 497.945312 -127.066406 496.746094 C -126.28125 495.546875 -125.378906 494.441406 -124.359375 493.433594 C -121.777344 491.25 -118.921875 489.511719 -115.796875 488.21875 C -112.671875 486.921875 -109.425781 486.128906 -106.054688 485.84375 L -83.734375 482.71875 C -83.734375 468.875 -89.09375 461.953125 -99.804688 461.953125 C -101.941406 461.984375 -104.058594 462.207031 -106.152344 462.625 C -108.246094 463.042969 -110.285156 463.648438 -112.269531 464.441406 C -114.253906 465.230469 -116.148438 466.199219 -117.957031 467.335938 C -119.761719 468.476562 -121.453125 469.769531 -123.019531 471.21875 L -123.019531 461.398438 C -121.453125 460.25 -119.777344 459.28125 -118 458.496094 C -116.058594 457.566406 -114.050781 456.824219 -111.972656 456.261719 C -109.84375 455.621094 -107.683594 455.101562 -105.5 454.699219 C -103.339844 454.535156 -101.183594 454.535156 -99.023438 454.699219 C -97.359375 454.578125 -95.699219 454.636719 -94.042969 454.871094 C -92.386719 455.105469 -90.777344 455.511719 -89.207031 456.089844 C -87.640625 456.667969 -86.148438 457.402344 -84.738281 458.296875 C -83.328125 459.191406 -82.023438 460.226562 -80.832031 461.398438 C -79.714844 462.804688 -78.738281 464.304688 -77.902344 465.894531 C -77.0625 467.484375 -76.382812 469.140625 -75.859375 470.859375 C -75.332031 472.578125 -74.972656 474.332031 -74.777344 476.121094 C -74.582031 477.90625 -74.554688 479.695312 -74.695312 481.488281 L -74.695312 528.371094 Z M -103.042969 492.207031 C -105.839844 492.601562 -108.59375 493.195312 -111.300781 493.992188 C -113.355469 494.605469 -115.25 495.535156 -116.996094 496.78125 C -118.453125 497.996094 -119.53125 499.484375 -120.230469 501.246094 C -121.054688 503.328125 -121.425781 505.484375 -121.347656 507.722656 C -121.359375 509.570312 -121.023438 511.359375 -120.34375 513.078125 C -119.675781 514.734375 -118.671875 516.148438 -117.328125 517.320312 C -115.980469 518.609375 -114.417969 519.539062 -112.640625 520.109375 C -110.617188 520.820312 -108.535156 521.15625 -106.390625 521.117188 C -103.3125 521.136719 -100.371094 520.503906 -97.574219 519.21875 C -94.941406 517.992188 -92.632812 516.320312 -90.65625 514.195312 C -88.640625 511.917969 -87.113281 509.351562 -86.078125 506.492188 C -85.019531 503.304688 -84.5 500.03125 -84.515625 496.671875 L -84.515625 489.636719 Z M -53.933594 527.253906 L -53.933594 420.765625 L -45.007812 420.765625 L -45.007812 527.253906 Z M 15.261719 512.519531 C 17.03125 513.792969 18.890625 514.910156 20.84375 515.871094 C 22.867188 516.867188 24.953125 517.722656 27.09375 518.4375 C 29.324219 519.105469 31.558594 519.554688 33.566406 520 C 35.613281 520.15625 37.660156 520.15625 39.707031 520 C 42.730469 520.214844 45.710938 519.953125 48.648438 519.207031 C 51.589844 518.460938 54.335938 517.277344 56.894531 515.644531 C 57.828125 514.882812 58.660156 514.019531 59.390625 513.054688 C 60.121094 512.09375 60.726562 511.058594 61.210938 509.953125 C 61.695312 508.847656 62.046875 507.699219 62.257812 506.511719 C 62.472656 505.324219 62.542969 504.125 62.472656 502.921875 C 62.5625 500.488281 62.152344 498.144531 61.246094 495.890625 C 60.183594 493.761719 58.769531 491.902344 57.003906 490.308594 C 54.855469 488.328125 52.511719 486.617188 49.972656 485.171875 L 39.929688 479.367188 L 28.769531 472.671875 C 26.039062 470.824219 23.546875 468.703125 21.289062 466.308594 C 19.425781 464.195312 18.011719 461.8125 17.046875 459.164062 C 16.0625 456.382812 15.578125 453.519531 15.597656 450.570312 C 15.5 446.609375 16.394531 442.890625 18.277344 439.40625 C 19.976562 436.105469 22.320312 433.351562 25.308594 431.148438 C 28.425781 428.800781 31.847656 427.050781 35.574219 425.898438 C 39.945312 424.839844 44.371094 424.464844 48.859375 424.785156 C 55.683594 424.605469 62.304688 425.6875 68.722656 428.019531 L 68.722656 438.402344 C 65.519531 436.621094 62.136719 435.292969 58.578125 434.421875 C 55.019531 433.550781 51.40625 433.167969 47.742188 433.269531 C 44.898438 433.230469 42.105469 433.601562 39.371094 434.382812 C 36.84375 435.015625 34.5 436.058594 32.339844 437.507812 C 30.421875 438.941406 28.859375 440.6875 27.652344 442.753906 C 26.480469 445.03125 25.921875 447.453125 25.976562 450.011719 C 25.898438 452.355469 26.273438 454.625 27.09375 456.820312 C 27.964844 458.882812 29.230469 460.671875 30.886719 462.179688 C 32.917969 464.121094 35.148438 465.796875 37.585938 467.203125 L 47.628906 472.78125 C 51.472656 474.769531 55.195312 476.964844 58.789062 479.367188 C 61.6875 481.257812 64.292969 483.492188 66.601562 486.066406 C 68.65625 488.210938 70.21875 490.664062 71.289062 493.433594 C 72.351562 496.199219 72.875 499.066406 72.851562 502.027344 C 72.875 505.933594 72.058594 509.65625 70.398438 513.191406 C 68.777344 516.519531 66.46875 519.269531 63.476562 521.449219 C 60.304688 523.800781 56.808594 525.476562 52.988281 526.472656 C 48.597656 527.625 44.132812 528.183594 39.59375 528.148438 C 37.695312 528.289062 35.800781 528.289062 33.902344 528.148438 C 31.640625 527.9375 29.410156 527.566406 27.207031 527.03125 C 25.050781 526.605469 22.929688 526.046875 20.84375 525.359375 C 19.105469 524.761719 17.429688 524.015625 15.820312 523.125 Z M 117.945312 526.363281 C 114.746094 527.957031 111.359375 528.738281 107.789062 528.707031 C 96.179688 528.707031 90.375 522.007812 90.375 508.613281 L 90.375 463.183594 L 77.765625 463.183594 L 77.765625 455.371094 L 90.375 455.371094 L 90.375 437.285156 L 99.304688 434.273438 L 99.304688 455.480469 L 117.832031 455.480469 L 117.832031 463.292969 L 99.304688 463.292969 L 99.304688 507.273438 C 99.101562 509.210938 99.203125 511.132812 99.601562 513.039062 C 100.003906 514.945312 100.683594 516.746094 101.648438 518.4375 C 102.140625 519.011719 102.691406 519.515625 103.300781 519.957031 C 103.914062 520.398438 104.570312 520.757812 105.269531 521.039062 C 105.96875 521.320312 106.691406 521.515625 107.4375 521.625 C 108.1875 521.730469 108.933594 521.746094 109.683594 521.675781 C 112.660156 521.648438 115.378906 520.792969 117.832031 519.105469 Z M 179.664062 527.253906 L 179.664062 514.976562 C 179.175781 516.03125 178.617188 517.046875 177.984375 518.023438 C 177.347656 519 176.648438 519.921875 175.878906 520.796875 C 175.109375 521.667969 174.28125 522.480469 173.394531 523.234375 C 172.507812 523.988281 171.574219 524.671875 170.585938 525.289062 C 169.601562 525.902344 168.574219 526.445312 167.511719 526.914062 C 166.445312 527.378906 165.351562 527.769531 164.230469 528.078125 C 163.109375 528.386719 161.972656 528.609375 160.816406 528.753906 C 159.664062 528.898438 158.503906 528.957031 157.34375 528.929688 C 140.265625 528.929688 131.671875 518.4375 131.671875 497.675781 L 131.671875 455.257812 L 140.601562 455.257812 L 140.601562 495.777344 C 140.359375 499.117188 140.632812 502.417969 141.414062 505.675781 C 142.191406 508.933594 143.449219 511.996094 145.175781 514.863281 C 146.007812 515.917969 146.953125 516.855469 148.011719 517.679688 C 149.070312 518.5 150.210938 519.183594 151.4375 519.726562 C 152.660156 520.273438 153.933594 520.664062 155.253906 520.898438 C 156.574219 521.132812 157.902344 521.203125 159.238281 521.117188 C 162.191406 521.117188 165.019531 520.523438 167.722656 519.328125 C 170.3125 518.125 172.507812 516.414062 174.304688 514.195312 C 176.289062 511.886719 177.742188 509.28125 178.660156 506.382812 C 179.726562 503.117188 180.246094 499.769531 180.222656 496.335938 L 180.222656 455.371094 L 189.152344 455.371094 L 189.152344 527.253906 Z M 262.253906 527.253906 L 262.253906 514.53125 C 261.089844 516.738281 259.628906 518.738281 257.882812 520.523438 C 256.136719 522.308594 254.171875 523.808594 251.988281 525.023438 C 249.695312 526.328125 247.269531 527.304688 244.710938 527.949219 C 242.152344 528.59375 239.554688 528.882812 236.917969 528.816406 C 232.671875 528.867188 228.617188 528.011719 224.753906 526.25 C 221.007812 524.644531 217.84375 522.265625 215.265625 519.105469 C 212.519531 515.785156 210.511719 512.0625 209.242188 507.945312 C 207.699219 503.039062 206.953125 498.015625 207.007812 492.875 C 206.9375 487.464844 207.71875 482.183594 209.351562 477.023438 C 210.765625 472.195312 213.070312 467.84375 216.273438 463.964844 C 219.136719 460.515625 222.597656 457.835938 226.652344 455.925781 C 230.945312 453.996094 235.449219 453.066406 240.15625 453.136719 C 241.28125 453.0625 242.402344 453.070312 243.527344 453.15625 C 244.648438 453.242188 245.757812 453.40625 246.859375 453.652344 C 247.957031 453.898438 249.03125 454.222656 250.085938 454.625 C 251.136719 455.023438 252.15625 455.496094 253.140625 456.042969 C 254.125 456.589844 255.066406 457.203125 255.964844 457.886719 C 256.859375 458.566406 257.703125 459.308594 258.492188 460.113281 C 259.285156 460.914062 260.011719 461.769531 260.679688 462.675781 C 261.347656 463.582031 261.945312 464.535156 262.476562 465.527344 L 262.476562 420.878906 L 271.40625 420.878906 L 271.40625 527.367188 Z M 262.253906 483.722656 C 262.300781 480.78125 261.855469 477.914062 260.914062 475.125 C 259.859375 472.476562 258.335938 470.132812 256.339844 468.09375 C 254.363281 466.015625 252.058594 464.417969 249.417969 463.292969 C 246.601562 462.09375 243.664062 461.5 240.601562 461.507812 C 237.175781 461.511719 233.902344 462.21875 230.78125 463.628906 C 227.734375 465.078125 225.167969 467.121094 223.078125 469.769531 C 220.796875 472.648438 219.121094 475.847656 218.058594 479.367188 C 216.816406 483.558594 216.183594 487.835938 216.160156 492.207031 C 216.097656 496.347656 216.65625 500.402344 217.835938 504.371094 C 218.75 507.726562 220.277344 510.777344 222.410156 513.527344 C 223.382812 514.746094 224.480469 515.84375 225.707031 516.8125 C 226.929688 517.785156 228.25 518.605469 229.664062 519.269531 C 231.074219 519.9375 232.542969 520.4375 234.070312 520.769531 C 235.597656 521.097656 237.144531 521.25 238.707031 521.226562 C 242.160156 521.277344 245.472656 520.605469 248.636719 519.21875 C 250.058594 518.574219 251.398438 517.792969 252.652344 516.871094 C 253.910156 515.949219 255.058594 514.90625 256.09375 513.742188 C 257.132812 512.578125 258.039062 511.320312 258.8125 509.96875 C 259.589844 508.613281 260.214844 507.195312 260.691406 505.710938 C 261.835938 502.535156 262.394531 499.261719 262.367188 495.890625 Z M 298.75 437.175781 C 297.921875 437.175781 297.117188 437.019531 296.347656 436.710938 C 295.574219 436.402344 294.886719 435.960938 294.285156 435.386719 C 293.640625 434.785156 293.152344 434.070312 292.824219 433.253906 C 292.492188 432.433594 292.347656 431.582031 292.390625 430.699219 C 292.347656 429.851562 292.496094 429.035156 292.828125 428.25 C 293.160156 427.46875 293.648438 426.796875 294.285156 426.234375 C 294.863281 425.621094 295.542969 425.148438 296.320312 424.816406 C 297.097656 424.488281 297.90625 424.328125 298.75 424.335938 C 299.570312 424.222656 300.386719 424.222656 301.207031 424.335938 C 302.011719 424.628906 302.71875 425.074219 303.328125 425.675781 C 303.9375 426.253906 304.421875 426.925781 304.777344 427.6875 C 305.394531 429.398438 305.394531 431.109375 304.777344 432.820312 C 304.460938 433.609375 303.976562 434.28125 303.328125 434.832031 C 302.796875 435.488281 302.128906 435.933594 301.316406 436.167969 C 300.535156 436.6875 299.679688 437.023438 298.75 437.175781 Z M 294.285156 527.253906 L 294.285156 455.371094 L 303.214844 455.371094 L 303.214844 527.253906 Z M 355.894531 529.042969 C 350.914062 529.121094 346.117188 528.230469 341.496094 526.363281 C 337.214844 524.65625 333.496094 522.128906 330.335938 518.773438 C 327.308594 515.5 325 511.777344 323.417969 507.609375 C 321.789062 502.679688 321.007812 497.621094 321.074219 492.429688 C 320.960938 486.917969 321.820312 481.558594 323.640625 476.355469 C 325.230469 471.742188 327.722656 467.6875 331.117188 464.1875 C 334.253906 460.800781 337.976562 458.269531 342.277344 456.597656 C 347.019531 454.769531 351.929688 453.914062 357.011719 454.03125 C 361.875 453.921875 366.5625 454.777344 371.074219 456.597656 C 375.390625 458.148438 379.109375 460.605469 382.234375 463.964844 C 385.082031 467.328125 387.128906 471.121094 388.375 475.351562 C 389.933594 480.421875 390.714844 485.613281 390.714844 490.921875 C 390.714844 496.230469 389.933594 501.421875 388.375 506.492188 C 386.796875 510.863281 384.492188 514.808594 381.453125 518.324219 C 378.332031 521.757812 374.609375 524.324219 370.292969 526.027344 C 365.707031 528.050781 360.90625 529.058594 355.894531 529.042969 Z M 356.566406 461.507812 C 352.695312 461.4375 348.976562 462.144531 345.402344 463.628906 C 342.230469 464.972656 339.515625 466.945312 337.257812 469.546875 C 334.878906 472.359375 333.128906 475.523438 332.011719 479.035156 C 330.738281 483.21875 330.144531 487.496094 330.226562 491.871094 C 330.148438 496.023438 330.746094 500.078125 332.011719 504.039062 C 333.15625 507.46875 334.90625 510.554688 337.257812 513.300781 C 339.457031 515.921875 342.136719 517.894531 345.292969 519.21875 C 348.863281 520.714844 352.582031 521.421875 356.453125 521.339844 C 360.324219 521.5 364.042969 520.832031 367.613281 519.328125 C 370.703125 517.957031 373.34375 515.984375 375.539062 513.414062 C 377.839844 510.6875 379.4375 507.601562 380.335938 504.148438 C 381.511719 499.988281 382.070312 495.746094 382.011719 491.421875 C 382.15625 489.445312 382.121094 487.46875 381.914062 485.496094 C 381.707031 483.523438 381.328125 481.585938 380.773438 479.683594 C 380.222656 477.777344 379.503906 475.933594 378.625 474.15625 C 377.746094 472.378906 376.71875 470.695312 375.539062 469.097656 C 374.375 467.757812 373.066406 466.570312 371.617188 465.539062 C 370.171875 464.511719 368.621094 463.664062 366.972656 463.003906 C 365.320312 462.34375 363.617188 461.886719 361.855469 461.636719 C 360.097656 461.382812 358.332031 461.339844 356.566406 461.507812 Z M 517.503906 523.460938 C 513.320312 525.355469 508.976562 526.765625 504.472656 527.6875 C 499.972656 528.609375 495.425781 529.023438 490.832031 528.929688 C 484.144531 529.011719 477.707031 527.785156 471.523438 525.246094 C 465.820312 522.8125 460.875 519.316406 456.679688 514.753906 C 452.398438 510.136719 449.238281 504.855469 447.191406 498.902344 C 444.890625 492.402344 443.773438 485.707031 443.84375 478.808594 C 443.792969 471.53125 444.984375 464.460938 447.414062 457.601562 C 449.636719 451.183594 453.019531 445.453125 457.570312 440.410156 C 462.109375 435.570312 467.429688 431.851562 473.53125 429.25 C 480.226562 426.363281 487.222656 424.984375 494.515625 425.117188 C 502.417969 425.011719 510.082031 426.316406 517.503906 429.027344 L 517.503906 439.070312 C 513.914062 437.296875 510.167969 435.953125 506.265625 435.050781 C 502.363281 434.144531 498.410156 433.699219 494.402344 433.714844 C 488.363281 433.601562 482.558594 434.71875 476.992188 437.0625 C 472.039062 439.222656 467.796875 442.347656 464.269531 446.4375 C 460.671875 450.628906 458.03125 455.355469 456.34375 460.617188 C 454.457031 466.417969 453.527344 472.371094 453.554688 478.476562 C 453.550781 484.066406 454.367188 489.539062 456.007812 494.882812 C 457.578125 499.808594 459.996094 504.273438 463.261719 508.277344 C 466.574219 512.261719 470.589844 515.3125 475.316406 517.433594 C 480.609375 519.800781 486.152344 520.917969 491.945312 520.78125 C 496.402344 520.84375 500.796875 520.34375 505.125 519.285156 C 509.453125 518.226562 513.582031 516.640625 517.503906 514.53125 Z M 566.613281 529.042969 C 561.671875 529.113281 556.910156 528.21875 552.328125 526.363281 C 548.027344 524.6875 544.304688 522.15625 541.167969 518.773438 C 538.101562 515.523438 535.792969 511.800781 534.246094 507.609375 C 532.621094 502.679688 531.839844 497.621094 531.902344 492.429688 C 531.8125 486.929688 532.628906 481.574219 534.359375 476.355469 C 536 471.746094 538.53125 467.6875 541.949219 464.1875 C 545.070312 460.773438 548.789062 458.246094 553.109375 456.597656 C 557.851562 454.769531 562.761719 453.914062 567.839844 454.03125 C 572.667969 453.921875 577.320312 454.777344 581.792969 456.597656 C 586.125 458.121094 589.847656 460.578125 592.953125 463.964844 C 596.003906 467.445312 598.234375 471.390625 599.648438 475.796875 C 601.300781 480.914062 602.082031 486.160156 601.992188 491.535156 C 602.066406 496.8125 601.25 501.945312 599.539062 506.941406 C 598.054688 511.367188 595.75 515.308594 592.617188 518.773438 C 589.503906 522.21875 585.785156 524.785156 581.457031 526.472656 C 576.695312 528.402344 571.746094 529.257812 566.613281 529.042969 Z M 567.394531 461.507812 C 563.523438 461.425781 559.804688 462.132812 556.234375 463.628906 C 553.0625 464.972656 550.347656 466.945312 548.085938 469.546875 C 545.667969 472.335938 543.917969 475.5 542.839844 479.035156 C 541.570312 483.21875 540.972656 487.496094 541.054688 491.871094 C 540.980469 496.023438 541.574219 500.078125 542.839844 504.039062 C 543.949219 507.460938 545.660156 510.550781 547.976562 513.300781 C 550.21875 515.921875 552.933594 517.894531 556.121094 519.21875 C 557.816406 519.898438 559.558594 520.414062 561.351562 520.761719 C 563.144531 521.109375 564.957031 521.28125 566.78125 521.28125 C 568.605469 521.28125 570.417969 521.109375 572.210938 520.761719 C 574.003906 520.414062 575.746094 519.898438 577.441406 519.21875 C 580.527344 517.886719 583.132812 515.914062 585.253906 513.300781 C 587.585938 510.585938 589.222656 507.496094 590.164062 504.039062 C 591.335938 499.875 591.894531 495.636719 591.835938 491.3125 C 591.980469 489.332031 591.949219 487.359375 591.742188 485.386719 C 591.53125 483.414062 591.152344 481.476562 590.601562 479.570312 C 590.046875 477.664062 589.332031 475.824219 588.453125 474.046875 C 587.574219 472.269531 586.542969 470.582031 585.363281 468.988281 C 584.246094 467.726562 583 466.605469 581.628906 465.625 C 580.257812 464.648438 578.792969 463.832031 577.238281 463.1875 C 575.679688 462.539062 574.074219 462.074219 572.410156 461.789062 C 570.75 461.507812 569.078125 461.414062 567.394531 461.507812 Z M 670.074219 527.367188 L 670.074219 514.53125 C 668.929688 516.734375 667.492188 518.730469 665.761719 520.515625 C 664.035156 522.304688 662.085938 523.804688 659.917969 525.023438 C 657.835938 526.15625 655.652344 527.039062 653.367188 527.675781 C 651.082031 528.3125 648.757812 528.683594 646.386719 528.789062 C 644.019531 528.894531 641.667969 528.734375 639.335938 528.304688 C 637.003906 527.878906 634.75 527.191406 632.574219 526.25 C 628.847656 524.621094 625.683594 522.238281 623.089844 519.105469 C 620.382812 515.761719 618.375 512.039062 617.0625 507.945312 C 615.558594 503.03125 614.851562 498.011719 614.941406 492.875 C 614.871094 487.464844 615.652344 482.183594 617.285156 477.023438 C 618.710938 472.457031 620.941406 468.328125 623.980469 464.632812 C 626.804688 461.132812 630.261719 458.453125 634.359375 456.597656 C 638.652344 454.644531 643.152344 453.714844 647.867188 453.804688 C 648.988281 453.726562 650.113281 453.726562 651.238281 453.804688 C 652.363281 453.886719 653.476562 454.050781 654.578125 454.292969 C 655.679688 454.535156 656.757812 454.859375 657.8125 455.257812 C 658.867188 455.65625 659.886719 456.128906 660.871094 456.675781 C 661.859375 457.222656 662.800781 457.839844 663.695312 458.523438 C 664.59375 459.207031 665.433594 459.953125 666.222656 460.757812 C 667.011719 461.5625 667.738281 462.421875 668.402344 463.332031 C 669.066406 464.246094 669.660156 465.199219 670.1875 466.195312 L 670.1875 420.765625 L 679.117188 420.765625 L 679.117188 527.253906 Z M 670.074219 483.832031 C 670.09375 480.785156 669.535156 477.84375 668.402344 475.015625 C 667.386719 472.371094 665.898438 470.027344 663.9375 467.984375 C 661.9375 465.941406 659.632812 464.339844 657.015625 463.183594 C 654.160156 461.992188 651.183594 461.398438 648.089844 461.398438 C 644.664062 461.410156 641.390625 462.117188 638.265625 463.519531 C 635.277344 464.996094 632.75 467.042969 630.675781 469.65625 C 628.347656 472.515625 626.675781 475.714844 625.65625 479.257812 C 624.382812 483.480469 623.789062 487.796875 623.871094 492.207031 C 623.828125 496.332031 624.347656 500.390625 625.433594 504.371094 C 626.382812 507.734375 627.945312 510.785156 630.121094 513.527344 C 632.03125 515.957031 634.375 517.855469 637.152344 519.21875 C 640.085938 520.597656 643.171875 521.265625 646.414062 521.226562 C 649.835938 521.273438 653.109375 520.605469 656.234375 519.21875 C 659.074219 517.917969 661.566406 516.128906 663.714844 513.859375 C 665.785156 511.4375 667.347656 508.71875 668.402344 505.710938 C 669.542969 502.535156 670.101562 499.261719 670.074219 495.890625 Z M 706.460938 492.988281 C 706.429688 497.023438 707.023438 500.96875 708.246094 504.820312 C 709.191406 508.148438 710.789062 511.125 713.046875 513.75 C 715.160156 516.234375 717.726562 518.09375 720.746094 519.328125 C 723.988281 520.726562 727.375 521.394531 730.902344 521.339844 C 732.988281 521.304688 735.058594 521.097656 737.109375 520.710938 C 739.160156 520.328125 741.164062 519.777344 743.121094 519.054688 C 745.078125 518.332031 746.960938 517.449219 748.769531 516.410156 C 750.578125 515.371094 752.285156 514.183594 753.894531 512.855469 L 753.894531 521.785156 C 750.222656 524.308594 746.253906 526.199219 741.980469 527.460938 C 737.707031 528.71875 733.347656 529.28125 728.894531 529.152344 C 724.363281 529.199219 720.011719 528.34375 715.835938 526.585938 C 711.871094 524.972656 708.523438 522.515625 705.789062 519.21875 C 702.824219 515.71875 700.664062 511.773438 699.316406 507.386719 C 697.753906 502.179688 697.011719 496.859375 697.085938 491.425781 C 697.074219 486.300781 697.894531 481.316406 699.539062 476.464844 C 701.078125 472.101562 703.347656 468.15625 706.347656 464.632812 C 709.246094 461.253906 712.707031 458.613281 716.730469 456.707031 C 720.863281 454.765625 725.21875 453.835938 729.785156 453.917969 C 734.042969 453.839844 738.136719 454.625 742.0625 456.261719 C 745.582031 457.871094 748.554688 460.179688 750.992188 463.183594 C 753.585938 466.523438 755.410156 470.246094 756.460938 474.34375 C 757.824219 479.085938 758.457031 483.925781 758.359375 488.855469 L 758.359375 493.320312 Z M 749.09375 485.171875 C 749.238281 482.046875 748.847656 478.992188 747.929688 476 C 747.007812 473.011719 745.613281 470.265625 743.738281 467.757812 C 742.882812 466.722656 741.917969 465.800781 740.84375 464.988281 C 739.769531 464.179688 738.621094 463.5 737.390625 462.957031 C 736.160156 462.417969 734.882812 462.023438 733.5625 461.777344 C 732.238281 461.53125 730.90625 461.441406 729.5625 461.507812 C 726.621094 461.480469 723.792969 462.039062 721.082031 463.183594 C 718.492188 464.28125 716.222656 465.84375 714.273438 467.871094 C 712.195312 470.03125 710.558594 472.488281 709.363281 475.238281 C 707.964844 478.414062 707.070312 481.726562 706.683594 485.171875 Z M 274.195312 4.074219 L 274.195312 318.070312 L -0.0273438 277.328125 L 274.195312 369.640625 L 365.714844 331.691406 L 365.714844 42.136719 Z M 178.210938 57.652344 L 94.171875 140.476562 L 43.613281 102.523438 L 22.851562 109.445312 L 74.191406 160.347656 L 22.851562 211.246094 L 43.613281 218.167969 L 94.171875 180.214844 L 178.210938 263.488281 L 228.4375 242.054688 L 228.4375 79.195312 Z M 178.210938 116.8125 L 178.210938 203.878906 L 120.398438 160.347656 Z M 178.210938 116.8125 " fill-opacity="1" fill-rule="nonzero"/></g></svg>