<svg xmlns="http://www.w3.org/2000/svg" xmlns:xlink="http://www.w3.org/1999/xlink" width="500" zoomAndPan="magnify" viewBox="0 0 375 374.999991" height="500" preserveAspectRatio="xMidYMid meet" version="1.0"><defs><clipPath id="05222d2885"><path d="M 8.90625 1 L 365.90625 1 L 365.90625 375 L 8.90625 375 Z M 8.90625 1 " clip-rule="nonzero"/></clipPath></defs><g clip-path="url(#05222d2885)"><path fill="#ffffff" d="M 31.320312 17.507812 L 237.613281 2.289062 C 262.964844 0.199219 269.476562 1.589844 285.382812 13.128906 L 351.34375 59.683594 C 362.179688 67.589844 365.859375 69.628906 365.859375 78.433594 L 365.859375 333.023438 C 365.859375 348.9375 359.945312 358.386719 339.761719 359.832031 L 100.117188 374.351562 C 85.207031 375.050781 77.699219 372.910156 69.796875 362.765625 L 21.179688 299.601562 C 12.582031 288.0625 8.953125 279.308594 8.953125 269.164062 L 8.953125 42.871094 C 8.953125 29.941406 14.71875 18.949219 31.320312 17.507812 Z M 31.320312 17.507812 " fill-opacity="1" fill-rule="nonzero"/><path fill="#000000" d="M 237.613281 2.289062 L 31.320312 17.507812 C 14.71875 19.046875 8.953125 29.941406 8.953125 42.871094 L 8.953125 269.164062 C 8.953125 279.113281 12.582031 288.0625 21.179688 299.601562 L 69.796875 362.765625 C 77.699219 372.710938 85.007812 375.050781 100.117188 374.351562 L 339.761719 359.832031 C 359.945312 358.386719 365.859375 348.9375 365.859375 333.023438 L 365.859375 78.679688 C 365.859375 70.472656 362.480469 68.085938 352.886719 61.023438 L 285.382812 13.378906 C 269.476562 1.839844 262.964844 0.449219 237.613281 2.535156 Z M 105.585938 74.351562 C 86 75.597656 81.625 75.894531 70.492188 66.84375 L 42.207031 44.464844 C 39.375 41.480469 40.765625 37.796875 48.121094 37.101562 L 246.359375 22.578125 C 249.199219 22.214844 252.042969 22.148438 254.894531 22.378906 C 257.746094 22.609375 260.542969 23.128906 263.289062 23.945312 C 266.03125 24.757812 268.660156 25.84375 271.175781 27.207031 C 273.695312 28.570312 276.042969 30.175781 278.222656 32.027344 L 312.175781 56.898438 C 313.714844 57.59375 317.144531 61.871094 312.871094 61.871094 L 108.121094 74.15625 L 105.585938 74.453125 Z M 82.769531 330.785156 L 82.769531 114.789062 C 82.769531 105.339844 85.703125 100.960938 94.300781 100.265625 L 329.621094 86.4375 C 337.527344 85.742188 341.203125 90.816406 341.203125 100.265625 L 341.203125 314.820312 C 341.203125 324.269531 339.613281 332.328125 326.691406 333.023438 L 101.660156 346.003906 C 88.535156 346.851562 82.769531 342.472656 82.769531 330.785156 Z M 304.96875 126.375 C 306.359375 132.839844 304.96875 139.308594 298.503906 140.152344 L 294.128906 140.996094 C 293.675781 141.089844 293.234375 141.21875 292.800781 141.386719 C 292.371094 141.550781 291.957031 141.753906 291.558594 141.992188 C 291.160156 142.230469 290.785156 142.5 290.4375 142.800781 C 290.085938 143.105469 289.761719 143.433594 289.46875 143.792969 C 289.171875 144.148438 288.910156 144.53125 288.683594 144.933594 C 288.453125 145.335938 288.257812 145.753906 288.101562 146.1875 C 287.945312 146.625 287.824219 147.070312 287.746094 147.527344 C 287.664062 147.984375 287.621094 148.441406 287.617188 148.90625 L 287.617188 293.136719 C 287.617188 315.417969 254.8125 314.820312 239.152344 295.078125 L 182.980469 206.746094 C 182.523438 205.996094 181.953125 205.339844 181.277344 204.777344 C 180.601562 204.214844 179.855469 203.773438 179.035156 203.457031 C 178.214844 203.136719 177.367188 202.957031 176.488281 202.917969 C 175.609375 202.878906 174.75 202.980469 173.902344 203.222656 C 173.058594 203.464844 172.273438 203.835938 171.550781 204.335938 C 170.824219 204.835938 170.199219 205.4375 169.675781 206.140625 C 169.148438 206.84375 168.746094 207.617188 168.472656 208.453125 C 168.199219 209.285156 168.0625 210.144531 168.070312 211.023438 L 168.070312 290.996094 C 168.078125 291.878906 168.226562 292.734375 168.511719 293.5625 C 168.796875 294.394531 169.207031 295.160156 169.738281 295.859375 C 170.273438 296.558594 170.902344 297.15625 171.628906 297.652344 C 172.355469 298.148438 173.140625 298.515625 173.984375 298.757812 C 183.628906 301.542969 187.40625 304.425781 188.351562 306.960938 C 190.339844 311.9375 185.269531 312.730469 181.988281 312.730469 L 127.308594 312.730469 C 123.183594 312.730469 120.945312 313.128906 121.246094 307.511719 C 121.542969 301.890625 128.304688 300.148438 134.417969 298.804688 C 134.859375 298.710938 135.289062 298.578125 135.707031 298.40625 C 136.128906 298.238281 136.527344 298.035156 136.914062 297.796875 C 137.296875 297.558594 137.660156 297.289062 137.996094 296.988281 C 138.335938 296.691406 138.648438 296.363281 138.929688 296.011719 C 139.210938 295.65625 139.464844 295.285156 139.683594 294.886719 C 139.902344 294.492188 140.085938 294.082031 140.234375 293.65625 C 140.382812 293.226562 140.496094 292.792969 140.570312 292.34375 C 140.644531 291.898438 140.683594 291.449219 140.679688 290.996094 L 140.679688 162.085938 C 140.683594 161.585938 140.636719 161.089844 140.546875 160.597656 C 140.453125 160.109375 140.320312 159.628906 140.136719 159.164062 C 139.957031 158.699219 139.734375 158.253906 139.472656 157.828125 C 139.207031 157.40625 138.90625 157.007812 138.570312 156.640625 C 138.230469 156.273438 137.863281 155.9375 137.460938 155.640625 C 137.0625 155.34375 136.636719 155.082031 136.1875 154.863281 C 135.738281 154.644531 135.273438 154.46875 134.792969 154.335938 C 134.3125 154.203125 133.820312 154.117188 133.324219 154.078125 L 131.335938 154.078125 C 130.589844 154.011719 129.867188 153.847656 129.167969 153.578125 C 128.464844 153.3125 127.816406 152.953125 127.21875 152.503906 C 126.617188 152.054688 126.089844 151.53125 125.636719 150.9375 C 125.183594 150.339844 124.816406 149.695312 124.542969 148.996094 C 124.269531 148.300781 124.097656 147.578125 124.023438 146.832031 C 123.953125 146.085938 123.984375 145.34375 124.117188 144.605469 C 124.253906 143.871094 124.484375 143.164062 124.816406 142.492188 C 125.148438 141.820312 125.5625 141.207031 126.066406 140.648438 C 127.234375 139.449219 128.582031 138.511719 130.113281 137.832031 C 131.640625 137.152344 133.242188 136.78125 134.914062 136.722656 L 183.726562 133.339844 C 184.445312 133.289062 185.152344 133.332031 185.855469 133.472656 C 186.558594 133.613281 187.234375 133.839844 187.875 134.160156 C 188.515625 134.480469 189.105469 134.878906 189.644531 135.355469 C 190.179688 135.832031 190.644531 136.367188 191.035156 136.96875 L 247.503906 223.609375 C 247.964844 224.359375 248.539062 225.019531 249.21875 225.585938 C 249.898438 226.152344 250.648438 226.59375 251.472656 226.910156 C 252.296875 227.226562 253.152344 227.402344 254.035156 227.441406 C 254.917969 227.476562 255.785156 227.371094 256.632812 227.121094 C 257.480469 226.871094 258.265625 226.492188 258.988281 225.984375 C 259.714844 225.480469 260.335938 224.867188 260.859375 224.15625 C 261.382812 223.441406 261.777344 222.664062 262.042969 221.820312 C 262.308594 220.976562 262.433594 220.113281 262.417969 219.230469 L 262.417969 153.28125 C 262.417969 152.796875 262.378906 152.3125 262.292969 151.832031 C 262.207031 151.355469 262.078125 150.886719 261.90625 150.429688 C 261.734375 149.976562 261.523438 149.539062 261.273438 149.121094 C 261.023438 148.703125 260.734375 148.3125 260.410156 147.949219 C 260.089844 147.585938 259.734375 147.253906 259.351562 146.953125 C 258.96875 146.65625 258.558594 146.394531 258.128906 146.167969 C 257.695312 145.945312 257.246094 145.761719 256.78125 145.621094 C 256.316406 145.476562 255.839844 145.378906 255.359375 145.324219 C 254.878906 145.269531 254.414062 145.175781 253.953125 145.035156 C 253.492188 144.898438 253.050781 144.71875 252.621094 144.5 C 252.195312 144.28125 251.789062 144.027344 251.40625 143.734375 C 251.027344 143.445312 250.671875 143.121094 250.347656 142.765625 C 250.023438 142.414062 249.734375 142.03125 249.480469 141.625 C 249.226562 141.21875 249.007812 140.792969 248.828125 140.34375 C 248.652344 139.898438 248.515625 139.441406 248.417969 138.96875 C 248.320312 138.5 248.269531 138.023438 248.257812 137.542969 C 248.246094 137.0625 248.28125 136.585938 248.355469 136.113281 C 248.429688 135.636719 248.546875 135.175781 248.707031 134.71875 C 248.867188 134.265625 249.0625 133.832031 249.300781 133.414062 C 249.539062 132.996094 249.808594 132.601562 250.117188 132.234375 C 250.425781 131.867188 250.765625 131.527344 251.132812 131.21875 C 251.5 130.910156 251.894531 130.640625 252.3125 130.402344 C 252.730469 130.164062 253.164062 129.96875 253.617188 129.808594 C 254.070312 129.652344 254.535156 129.535156 255.011719 129.460938 L 255.257812 129.460938 L 305.265625 126.675781 Z M 304.96875 126.375 " fill-opacity="1" fill-rule="evenodd"/></g></svg>