<svg xmlns="http://www.w3.org/2000/svg" xmlns:xlink="http://www.w3.org/1999/xlink" width="500" zoomAndPan="magnify" viewBox="0 0 375 374.999991" height="500" preserveAspectRatio="xMidYMid meet" version="1.0"><path fill="#000000" d="M 164.699219 9.054688 C 80.257812 18.410156 11.453125 86.527344 1.265625 170.8125 C 0.933594 173.457031 0.664062 176.109375 0.445312 178.765625 C 0.230469 181.425781 0.0703125 184.085938 -0.03125 186.75 C -0.132812 189.414062 -0.175781 192.078125 -0.164062 194.746094 C -0.152344 197.414062 -0.0820312 200.078125 0.046875 202.742188 C 0.171875 205.402344 0.355469 208.0625 0.597656 210.71875 C 0.839844 213.375 1.136719 216.023438 1.492188 218.667969 C 1.84375 221.308594 2.253906 223.941406 2.722656 226.566406 C 3.191406 229.191406 3.714844 231.808594 4.292969 234.410156 C 4.871094 237.011719 5.507812 239.601562 6.199219 242.175781 C 6.886719 244.753906 7.632812 247.3125 8.433594 249.855469 C 9.234375 252.398438 10.085938 254.925781 10.996094 257.429688 C 11.902344 259.9375 12.867188 262.425781 13.878906 264.890625 C 14.894531 267.355469 15.960938 269.800781 17.082031 272.21875 C 18.203125 274.640625 19.375 277.035156 20.59375 279.40625 C 21.816406 281.773438 23.089844 284.117188 24.414062 286.433594 C 25.734375 288.746094 27.105469 291.035156 28.527344 293.289062 C 29.949219 295.546875 31.417969 297.773438 32.933594 299.964844 C 34.449219 302.160156 36.011719 304.320312 37.621094 306.445312 C 39.230469 308.574219 40.882812 310.664062 42.582031 312.71875 C 44.28125 314.777344 46.019531 316.792969 47.804688 318.777344 C 49.589844 320.757812 51.417969 322.699219 53.285156 324.601562 C 55.152344 326.503906 57.0625 328.367188 59.011719 330.1875 C 60.957031 332.011719 62.945312 333.789062 64.96875 335.523438 C 66.992188 337.261719 69.054688 338.953125 71.148438 340.601562 C 73.246094 342.25 75.378906 343.851562 77.542969 345.40625 C 79.707031 346.964844 81.90625 348.472656 84.136719 349.9375 C 86.367188 351.398438 88.625 352.8125 90.917969 354.179688 C 93.207031 355.542969 95.527344 356.859375 97.875 358.125 C 100.222656 359.390625 102.59375 360.609375 104.992188 361.773438 C 107.394531 362.9375 109.816406 364.050781 112.261719 365.109375 C 114.710938 366.171875 117.179688 367.179688 119.667969 368.132812 C 122.160156 369.089844 124.667969 369.988281 127.199219 370.835938 C 136.515625 372.324219 139.496094 366.554688 139.496094 361.535156 L 139.496094 330.066406 C 87.917969 341.265625 76.9375 305.132812 76.9375 305.132812 C 68.394531 283.535156 56.269531 277.761719 56.269531 277.761719 C 39.316406 266.21875 57.585938 266.601562 57.585938 266.601562 C 76.199219 267.917969 86.070312 285.773438 86.070312 285.773438 C 102.273438 314.066406 129.636719 305.6875 140.246094 301.21875 C 141.921875 289.121094 146.835938 280.925781 151.976562 276.273438 C 110.574219 271.621094 67.25 255.609375 67.25 184.699219 C 67.25 164.039062 74.328125 147.472656 86.429688 134.253906 C 84.570312 129.605469 78.042969 110.246094 88.285156 85.117188 C 88.285156 85.117188 103.933594 80.082031 139.496094 104.105469 C 147.085938 102.0625 154.773438 100.527344 162.5625 99.496094 C 170.355469 98.464844 178.179688 97.949219 186.039062 97.949219 C 193.898438 97.949219 201.722656 98.464844 209.511719 99.496094 C 217.304688 100.527344 224.992188 102.0625 232.582031 104.105469 C 268.171875 80.082031 283.789062 85.117188 283.789062 85.117188 C 294.019531 110.246094 287.507812 129.605469 285.648438 134.253906 C 297.75 147.433594 304.828125 164.039062 304.828125 184.699219 C 304.828125 255.792969 261.25 271.4375 219.742188 276.089844 C 226.4375 281.859375 232.582031 293.21875 232.582031 310.523438 L 232.582031 361.535156 C 232.582031 366.554688 235.558594 372.511719 245.0625 370.835938 C 247.761719 369.933594 250.441406 368.96875 253.09375 367.941406 C 255.75 366.914062 258.378906 365.828125 260.984375 364.679688 C 263.589844 363.53125 266.167969 362.324219 268.714844 361.058594 C 271.265625 359.796875 273.785156 358.472656 276.273438 357.089844 C 278.761719 355.710938 281.21875 354.273438 283.640625 352.78125 C 286.066406 351.289062 288.453125 349.738281 290.804688 348.136719 C 293.15625 346.535156 295.472656 344.878906 297.75 343.167969 C 300.023438 341.460938 302.261719 339.699219 304.457031 337.890625 C 306.652344 336.078125 308.804688 334.21875 310.914062 332.308594 C 313.027344 330.398438 315.089844 328.441406 317.113281 326.4375 C 319.132812 324.433594 321.105469 322.382812 323.035156 320.289062 C 324.960938 318.195312 326.839844 316.058594 328.667969 313.875 C 330.496094 311.695312 332.273438 309.472656 334 307.210938 C 335.726562 304.949219 337.402344 302.648438 339.023438 300.308594 C 340.644531 297.972656 342.210938 295.597656 343.722656 293.1875 C 345.238281 290.773438 346.695312 288.332031 348.09375 285.855469 C 349.496094 283.375 350.839844 280.867188 352.125 278.328125 C 353.410156 275.789062 354.636719 273.222656 355.804688 270.628906 C 356.972656 268.03125 358.082031 265.414062 359.128906 262.765625 C 360.175781 260.121094 361.164062 257.453125 362.089844 254.761719 C 363.015625 252.070312 363.878906 249.359375 364.679688 246.628906 C 365.480469 243.898438 366.21875 241.148438 366.894531 238.386719 C 367.570312 235.621094 368.183594 232.84375 368.730469 230.050781 C 369.277344 227.257812 369.761719 224.453125 370.183594 221.640625 C 370.601562 218.824219 370.957031 216 371.246094 213.171875 C 371.539062 210.339844 371.761719 207.503906 371.921875 204.664062 C 372.082031 201.820312 372.179688 198.976562 372.207031 196.132812 C 372.238281 193.285156 372.203125 190.441406 372.101562 187.597656 C 372.003906 184.753906 371.835938 181.914062 371.605469 179.078125 C 371.375 176.242188 371.082031 173.410156 370.71875 170.589844 C 370.359375 167.765625 369.933594 164.953125 369.445312 162.148438 C 368.957031 159.34375 368.402344 156.554688 367.785156 153.777344 C 367.167969 151 366.488281 148.234375 365.746094 145.488281 C 365 142.742188 364.195312 140.011719 363.328125 137.304688 C 362.457031 134.59375 361.527344 131.90625 360.535156 129.238281 C 359.542969 126.570312 358.492188 123.925781 357.378906 121.308594 C 356.265625 118.6875 355.09375 116.097656 353.859375 113.53125 C 352.628906 110.964844 351.335938 108.429688 349.988281 105.921875 C 348.640625 103.417969 347.238281 100.941406 345.773438 98.5 C 344.3125 96.058594 342.796875 93.652344 341.222656 91.277344 C 339.652344 88.90625 338.027344 86.570312 336.347656 84.273438 C 334.667969 81.976562 332.9375 79.714844 331.15625 77.496094 C 329.375 75.277344 327.542969 73.101562 325.660156 70.96875 C 323.777344 68.832031 321.847656 66.742188 319.867188 64.695312 C 317.890625 62.648438 315.867188 60.648438 313.796875 58.695312 C 311.726562 56.742188 309.613281 54.835938 307.457031 52.980469 C 305.300781 51.121094 303.101562 49.316406 300.863281 47.558594 C 298.621094 45.804688 296.34375 44.101562 294.023438 42.449219 C 291.707031 40.796875 289.351562 39.199219 286.960938 37.65625 C 284.570312 36.109375 282.144531 34.621094 279.683594 33.1875 C 277.226562 31.757812 274.734375 30.378906 272.210938 29.0625 C 269.691406 27.742188 267.140625 26.484375 264.558594 25.28125 C 261.980469 24.078125 259.371094 22.9375 256.738281 21.855469 C 254.105469 20.773438 251.449219 19.75 248.773438 18.789062 C 246.09375 17.828125 243.390625 16.929688 240.671875 16.09375 C 237.953125 15.253906 235.210938 14.480469 232.457031 13.769531 C 229.699219 13.058594 226.929688 12.410156 224.144531 11.824219 C 221.359375 11.242188 218.5625 10.71875 215.75 10.261719 C 212.941406 9.804688 210.121094 9.414062 207.296875 9.085938 C 204.46875 8.757812 201.632812 8.496094 198.792969 8.300781 C 195.953125 8.101562 193.113281 7.96875 190.265625 7.902344 C 187.421875 7.835938 184.574219 7.832031 181.730469 7.894531 C 178.882812 7.957031 176.039062 8.085938 173.199219 8.277344 C 170.359375 8.472656 167.527344 8.730469 164.699219 9.054688 Z M 164.699219 9.054688 " fill-opacity="1" fill-rule="nonzero"/></svg>