<svg xmlns="http://www.w3.org/2000/svg" xmlns:xlink="http://www.w3.org/1999/xlink" width="500" zoomAndPan="magnify" viewBox="0 0 375 374.999991" height="500" preserveAspectRatio="xMidYMid meet" version="1.0"><defs><clipPath id="91889f6764"><path d="M 187.5 0 C 83.945312 0 0 83.945312 0 187.5 C 0 291.054688 83.945312 375 187.5 375 C 291.054688 375 375 291.054688 375 187.5 C 375 83.945312 291.054688 0 187.5 0 Z M 187.5 0 " clip-rule="nonzero"/></clipPath><clipPath id="36b24e6b8b"><path d="M 140.066406 87.96875 L 228 87.96875 L 228 292.65625 L 140.066406 292.65625 Z M 140.066406 87.96875 " clip-rule="nonzero"/></clipPath><clipPath id="fb4f25a524"><path d="M 136 87 L 232 87 L 232 293 L 136 293 Z M 136 87 " clip-rule="nonzero"/></clipPath><clipPath id="0c4af78829"><path d="M 132.703125 88.175781 L 227.15625 86.375 L 231.058594 291.023438 L 136.605469 292.828125 Z M 132.703125 88.175781 " clip-rule="nonzero"/></clipPath><clipPath id="ae317f2d79"><path d="M 89.933594 88.992188 L 278.84375 85.390625 L 282.746094 290.039062 L 93.839844 293.640625 Z M 89.933594 88.992188 " clip-rule="nonzero"/></clipPath></defs><g clip-path="url(#91889f6764)"><rect x="-37.5" width="450" fill="#13aa53" y="-37.499999" height="449.999989" fill-opacity="1"/></g><g clip-path="url(#36b24e6b8b)"><path fill="#000000" d="M 183.234375 87.96875 C 183.21875 88.132812 183.203125 88.234375 183.195312 88.386719 L 183.195312 88.5 L 183.1875 88.5 C 183.171875 88.628906 183.164062 88.710938 183.15625 88.832031 L 183.15625 88.960938 L 183.140625 88.960938 C 183.140625 89.046875 183.125 89.113281 183.125 89.179688 L 183.125 89.402344 L 183.101562 89.402344 C 183.09375 89.472656 183.09375 89.558594 183.078125 89.617188 L 183.078125 89.796875 L 183.0625 89.796875 C 183.0625 89.855469 183.0625 89.921875 183.042969 89.976562 L 183.042969 90.144531 L 183.027344 90.144531 C 183.027344 90.230469 183.019531 90.332031 183.011719 90.417969 L 183.011719 90.433594 C 182.988281 90.582031 182.964844 90.726562 182.941406 90.863281 L 182.941406 90.929688 L 182.925781 90.929688 C 182.917969 90.964844 182.902344 91 182.902344 91.03125 L 182.902344 91.175781 L 182.878906 91.175781 L 182.878906 91.363281 L 182.839844 91.363281 L 182.839844 91.519531 L 182.800781 91.519531 L 182.800781 91.699219 L 182.769531 91.699219 L 182.769531 91.859375 L 182.730469 91.859375 L 182.730469 92.003906 L 182.683594 92.003906 L 182.683594 92.125 L 182.652344 92.125 L 182.652344 92.277344 L 182.621094 92.277344 L 182.621094 92.398438 L 182.570312 92.398438 L 182.570312 92.507812 L 182.546875 92.507812 L 182.546875 92.636719 L 182.515625 92.636719 C 182.507812 92.644531 182.507812 92.660156 182.507812 92.667969 L 182.507812 92.753906 L 182.484375 92.753906 C 182.476562 92.773438 182.476562 92.789062 182.476562 92.804688 L 182.476562 92.859375 L 182.460938 92.859375 C 182.453125 92.882812 182.445312 92.925781 182.445312 92.941406 C 182.421875 93.003906 182.390625 93.0625 182.367188 93.121094 L 182.367188 93.140625 C 182.351562 93.15625 182.335938 93.179688 182.328125 93.199219 L 182.328125 93.265625 L 182.296875 93.265625 L 182.296875 93.335938 L 182.257812 93.335938 L 182.257812 93.402344 L 182.234375 93.402344 L 182.234375 93.488281 L 182.179688 93.488281 L 182.179688 93.609375 L 182.144531 93.609375 L 182.144531 93.640625 L 182.113281 93.640625 L 182.113281 93.710938 L 182.082031 93.710938 L 182.082031 93.804688 L 182.050781 93.804688 L 182.050781 93.871094 L 182.003906 93.871094 L 182.003906 93.964844 L 181.972656 93.964844 L 181.972656 94.035156 L 181.933594 94.035156 L 181.933594 94.101562 L 181.910156 94.101562 L 181.910156 94.1875 L 181.863281 94.1875 L 181.863281 94.257812 L 181.832031 94.257812 L 181.832031 94.308594 L 181.800781 94.308594 L 181.800781 94.375 L 181.753906 94.375 L 181.753906 94.453125 L 181.71875 94.453125 L 181.71875 94.503906 L 181.679688 94.503906 L 181.679688 94.570312 L 181.648438 94.570312 L 181.648438 94.664062 L 181.609375 94.664062 L 181.609375 94.699219 L 181.585938 94.699219 L 181.585938 94.769531 L 181.539062 94.769531 L 181.539062 94.800781 L 181.507812 94.800781 L 181.507812 94.886719 L 181.46875 94.886719 L 181.46875 94.921875 L 181.4375 94.921875 L 181.4375 94.988281 L 181.398438 94.988281 L 181.398438 95.039062 L 181.375 95.039062 L 181.359375 95.074219 L 181.359375 95.109375 L 181.34375 95.109375 C 181.335938 95.125 181.328125 95.125 181.328125 95.144531 L 181.328125 95.152344 L 181.320312 95.152344 C 181.3125 95.175781 181.304688 95.195312 181.289062 95.210938 L 181.289062 95.238281 L 181.277344 95.238281 C 181.238281 95.289062 181.214844 95.339844 181.183594 95.390625 L 181.183594 95.398438 C 181.167969 95.417969 181.128906 95.449219 181.113281 95.484375 L 181.113281 95.5 L 181.105469 95.5 C 181.097656 95.511719 181.082031 95.519531 181.082031 95.527344 L 181.082031 95.550781 L 181.066406 95.550781 L 181.042969 95.578125 L 181.042969 95.585938 L 181.035156 95.585938 C 181.035156 95.59375 181.019531 95.605469 181.011719 95.621094 L 181.011719 95.65625 L 180.988281 95.65625 L 180.972656 95.671875 L 180.972656 95.6875 L 180.957031 95.6875 C 180.957031 95.707031 180.941406 95.707031 180.941406 95.714844 L 180.941406 95.738281 L 180.910156 95.738281 C 180.910156 95.75 180.902344 95.757812 180.894531 95.765625 L 180.894531 95.816406 L 180.871094 95.816406 L 180.871094 95.851562 L 180.835938 95.851562 L 180.835938 95.902344 L 180.804688 95.902344 L 180.804688 95.96875 L 180.765625 95.96875 L 180.765625 95.902344 L 180.726562 95.902344 L 180.726562 95.9375 L 180.679688 95.9375 L 180.679688 95.988281 L 180.640625 95.988281 L 180.640625 96.054688 L 180.601562 96.054688 L 180.601562 96.089844 L 180.570312 96.089844 L 180.570312 96.140625 L 180.539062 96.140625 L 180.539062 96.175781 L 180.507812 96.175781 L 180.507812 96.242188 L 180.460938 96.242188 L 180.460938 96.277344 L 180.429688 96.277344 L 180.429688 96.328125 L 180.386719 96.328125 L 180.386719 96.363281 L 180.355469 96.363281 L 180.355469 96.40625 L 180.316406 96.40625 L 180.316406 96.492188 L 180.300781 96.492188 L 180.300781 96.523438 L 180.253906 96.523438 L 180.253906 96.566406 L 180.222656 96.566406 L 180.222656 96.585938 L 180.191406 96.585938 L 180.191406 96.617188 L 180.152344 96.617188 L 180.152344 96.703125 L 180.121094 96.703125 L 180.121094 96.738281 L 180.082031 96.738281 L 180.082031 96.773438 L 180.050781 96.773438 L 180.050781 96.824219 L 180.011719 96.824219 L 180.011719 96.855469 L 179.972656 96.855469 L 179.972656 96.890625 L 179.9375 96.890625 L 179.9375 96.925781 L 179.890625 96.925781 L 179.890625 97.011719 L 179.859375 97.011719 L 179.859375 97.054688 L 179.8125 97.054688 L 179.8125 97.085938 L 179.78125 97.085938 L 179.78125 97.121094 L 179.734375 97.121094 L 179.734375 97.171875 L 179.703125 97.171875 L 179.703125 97.207031 L 179.664062 97.207031 L 179.664062 97.265625 L 179.632812 97.265625 L 179.632812 97.300781 L 179.585938 97.300781 L 179.585938 97.351562 L 179.570312 97.351562 L 179.570312 97.386719 L 179.539062 97.386719 L 179.539062 97.421875 L 179.496094 97.421875 L 179.496094 97.453125 L 179.464844 97.453125 L 179.464844 97.503906 L 179.425781 97.503906 L 179.425781 97.539062 L 179.402344 97.539062 C 179.394531 97.546875 179.394531 97.558594 179.394531 97.558594 L 179.394531 97.574219 L 179.378906 97.574219 L 179.339844 97.609375 C 179.339844 97.609375 179.324219 97.625 179.308594 97.632812 L 179.308594 97.683594 L 179.277344 97.683594 L 179.277344 97.726562 L 179.246094 97.726562 L 179.246094 97.761719 L 179.214844 97.761719 L 179.214844 97.796875 L 179.191406 97.796875 L 179.167969 97.820312 L 179.167969 97.847656 L 179.152344 97.847656 L 179.136719 97.863281 L 179.136719 97.890625 L 179.121094 97.890625 C 179.082031 97.941406 179.0625 97.976562 179.007812 98.027344 C 178.992188 98.042969 178.945312 98.085938 178.914062 98.109375 C 178.820312 98.179688 178.695312 98.289062 178.597656 98.382812 C 178.535156 98.425781 178.472656 98.488281 178.425781 98.527344 L 178.425781 98.539062 L 178.417969 98.539062 C 178.292969 98.648438 178.164062 98.75 178.023438 98.871094 L 178.023438 98.878906 C 177.835938 99.050781 177.644531 99.210938 177.425781 99.40625 L 177.425781 99.398438 L 177.410156 99.398438 C 176.953125 99.800781 176.464844 100.25 175.910156 100.753906 L 175.910156 100.761719 L 175.902344 100.761719 C 174.539062 102.027344 172.925781 103.644531 171.113281 105.609375 L 170.960938 105.769531 C 160.003906 117.769531 142.734375 142.777344 140.914062 183.183594 C 140.757812 186.527344 140.789062 189.777344 140.960938 192.941406 L 140.960938 193.019531 C 141.835938 208.941406 146.558594 222.535156 152.46875 233.578125 L 152.46875 233.589844 C 154.820312 237.988281 157.355469 241.988281 159.933594 245.570312 L 159.933594 245.578125 C 168.808594 257.988281 177.875 265.339844 180.191406 267.121094 C 183.746094 275.847656 183.414062 290.824219 183.414062 290.824219 L 188.585938 292.65625 C 188.585938 292.65625 187.53125 278.152344 189.011719 271.148438 C 189.46875 268.957031 190.554688 267.089844 191.824219 265.503906 C 192.675781 264.863281 195.207031 262.933594 198.25 260 C 198.390625 259.839844 198.476562 259.695312 198.605469 259.539062 C 210.859375 247.449219 233.75 217.664062 225.898438 169.144531 C 215.722656 121.726562 191.722656 106.144531 189.144531 100.183594 C 186.300781 95.980469 183.234375 87.96875 183.234375 87.96875 Z M 183.234375 87.96875 " fill-opacity="1" fill-rule="nonzero"/></g><g clip-path="url(#fb4f25a524)"><g clip-path="url(#0c4af78829)"><g clip-path="url(#ae317f2d79)"><path fill="#ffffff" d="M 201.972656 110.609375 C 193.003906 100.367188 185.246094 89.945312 183.664062 87.777344 C 183.625 87.742188 183.582031 87.710938 183.53125 87.691406 C 183.480469 87.671875 183.429688 87.660156 183.375 87.660156 C 183.324219 87.664062 183.269531 87.675781 183.222656 87.695312 C 183.171875 87.71875 183.128906 87.75 183.09375 87.789062 C 181.59375 90.011719 174.242188 100.726562 165.667969 111.300781 C 92.21875 208.75 180.59375 271.882812 180.59375 271.882812 L 181.335938 272.359375 C 182.175781 282.34375 184.074219 296.707031 184.074219 296.707031 L 190.570312 296.582031 C 190.570312 296.582031 191.921875 282.242188 192.378906 272.148438 L 193.097656 271.566406 C 193.183594 271.644531 279.085938 205.1875 201.972656 110.609375 Z M 186.820312 270.300781 C 186.820312 270.300781 182.859375 267.042969 181.769531 265.355469 L 181.765625 265.191406 L 184.480469 160.550781 C 184.476562 160.226562 184.964844 160.21875 184.96875 160.542969 L 191.675781 265.003906 L 191.675781 265.167969 C 190.652344 266.894531 186.820312 270.300781 186.820312 270.300781 Z M 186.820312 270.300781 " fill-opacity="1" fill-rule="nonzero"/></g></g></g></svg>