<svg xmlns="http://www.w3.org/2000/svg" xmlns:xlink="http://www.w3.org/1999/xlink" width="500" zoomAndPan="magnify" viewBox="0 0 375 374.999991" height="500" preserveAspectRatio="xMidYMid meet" version="1.0"><path fill="#f5e6fe" d="M 304.6875 375 L 70.3125 375 C 31.476562 375 0 343.523438 0 304.6875 L 0 70.3125 C 0 31.476562 31.476562 0 70.3125 0 L 304.6875 0 C 343.523438 0 375 31.476562 375 70.3125 L 375 304.6875 C 375 343.523438 343.523438 375 304.6875 375 Z M 304.6875 375 " fill-opacity="1" fill-rule="nonzero"/><path fill="#be63f9" d="M 104.730469 221.449219 C 104.90625 221.859375 105.117188 222.222656 105.328125 222.609375 C 105.433594 222.832031 105.574219 223.054688 105.691406 223.253906 C 105.890625 223.664062 106.113281 224.050781 106.324219 224.4375 L 107.554688 226.5 C 107.777344 226.886719 108 227.25 108.257812 227.636719 C 108.691406 228.363281 109.195312 229.089844 109.640625 229.828125 C 109.839844 230.132812 110.027344 230.4375 110.261719 230.742188 C 111.117188 232.078125 111.902344 233.191406 112.734375 234.269531 C 113.332031 235.078125 113.917969 235.863281 114.5625 236.648438 C 114.773438 236.941406 115.007812 237.246094 115.230469 237.539062 L 116.953125 239.636719 C 117.164062 239.882812 117.375 240.164062 117.597656 240.410156 C 118.359375 241.324219 119.179688 242.226562 119.988281 243.128906 C 119.988281 243.140625 120.011719 243.164062 120.023438 243.1875 C 121.03125 244.453125 122.121094 245.578125 123.304688 246.585938 L 123.339844 246.621094 C 123.960938 247.253906 124.59375 247.898438 125.261719 248.519531 L 126.046875 249.269531 C 126.914062 250.078125 127.78125 250.886719 128.695312 251.660156 C 128.707031 251.660156 128.71875 251.671875 128.730469 251.683594 L 129.175781 252.070312 C 129.972656 252.761719 130.78125 253.453125 131.601562 254.097656 L 132.574219 254.917969 C 133.242188 255.445312 133.933594 255.949219 134.613281 256.476562 L 135.679688 257.285156 C 136.40625 257.824219 137.179688 258.363281 137.929688 258.890625 C 138.199219 259.089844 138.480469 259.277344 138.761719 259.453125 L 138.984375 259.628906 L 141.1875 261.070312 L 142.125 261.691406 C 143.273438 262.417969 144.421875 263.121094 145.546875 263.800781 C 145.875 263.964844 146.203125 264.140625 146.507812 264.328125 C 147.351562 264.808594 148.230469 265.300781 149.085938 265.746094 C 149.554688 266.015625 150.035156 266.238281 150.527344 266.472656 C 151.113281 266.800781 151.722656 267.117188 152.355469 267.445312 C 152.53125 267.503906 152.671875 267.550781 152.8125 267.632812 L 152.800781 267.621094 C 153.058594 267.738281 153.304688 267.867188 153.550781 267.984375 C 154.488281 268.453125 155.472656 268.898438 156.480469 269.34375 C 156.667969 269.425781 156.867188 269.496094 157.078125 269.613281 C 158.203125 270.105469 159.328125 270.574219 160.5 271.03125 C 160.769531 271.113281 161.050781 271.242188 161.320312 271.347656 C 162.375 271.746094 163.464844 272.144531 164.53125 272.53125 L 164.917969 272.671875 C 166.113281 273.070312 167.296875 273.46875 168.503906 273.84375 C 168.785156 273.925781 169.078125 274.019531 169.371094 274.101562 C 170.613281 274.476562 171.820312 274.921875 173.074219 275.15625 C 253.335938 289.710938 276.65625 227.144531 276.65625 227.144531 C 257.0625 252.527344 222.292969 259.230469 189.351562 251.777344 C 188.132812 251.496094 186.914062 251.109375 185.683594 250.746094 C 183.445312 250.101562 181.96875 249.621094 180.503906 249.117188 L 181.242188 249.339844 L 180.761719 249.152344 C 179.695312 248.789062 178.675781 248.402344 177.632812 248.003906 C 177.433594 247.921875 177.152344 247.804688 176.859375 247.710938 L 176.777344 247.6875 C 175.628906 247.230469 174.503906 246.75 173.402344 246.269531 C 173.15625 246.1875 172.957031 246.082031 172.710938 245.988281 C 170.660156 245.085938 169.734375 244.640625 168.808594 244.195312 L 169.886719 244.675781 C 169.59375 244.546875 169.335938 244.417969 169.054688 244.265625 C 168.316406 243.925781 167.589844 243.539062 166.863281 243.164062 C 166.195312 242.847656 165.714844 242.601562 165.246094 242.34375 L 165.398438 242.425781 C 164.519531 241.957031 163.628906 241.453125 162.75 240.972656 C 162.480469 240.785156 162.175781 240.632812 161.871094 240.457031 C 160.183594 239.472656 159.058594 238.769531 157.957031 238.066406 L 158.449219 238.359375 C 158.074219 238.125 157.769531 237.925781 157.476562 237.714844 L 157.523438 237.75 C 156.5625 237.152344 155.800781 236.648438 155.050781 236.132812 C 154.792969 235.957031 154.546875 235.769531 154.277344 235.582031 C 153.28125 234.890625 152.53125 234.351562 151.792969 233.800781 L 151.980469 233.929688 C 151.652344 233.660156 151.300781 233.414062 150.949219 233.15625 C 150.257812 232.617188 149.566406 232.101562 148.875 231.539062 L 147.949219 230.8125 C 146.953125 230.015625 146.132812 229.3125 145.3125 228.609375 C 145.230469 228.527344 145.148438 228.457031 145.054688 228.398438 L 145.042969 228.386719 L 142.324219 225.925781 L 141.539062 225.199219 C 140.894531 224.554688 140.238281 223.933594 139.582031 223.289062 L 138.820312 222.515625 C 138.011719 221.71875 137.226562 220.898438 136.453125 220.054688 L 136.40625 219.996094 L 136.289062 219.867188 C 135.457031 218.964844 134.648438 218.050781 133.839844 217.113281 C 133.628906 216.867188 133.429688 216.621094 133.21875 216.363281 L 131.449219 214.207031 C 130.828125 213.445312 129.960938 212.308594 129.105469 211.160156 L 128.789062 210.726562 C 110.519531 185.917969 103.910156 151.664062 118.535156 123.574219 L 105.621094 139.898438 C 89.015625 163.640625 91.066406 194.507812 103.769531 219.726562 C 104.097656 220.289062 104.414062 220.875 104.730469 221.449219 Z M 104.730469 221.449219 " fill-opacity="1" fill-rule="nonzero"/><path fill="#d9a4fc" d="M 160.640625 187.242188 L 160.558594 187.125 L 160.5 187.03125 Z M 160.640625 187.242188 " fill-opacity="1" fill-rule="nonzero"/><path fill="#d9a4fc" d="M 169.382812 197.496094 L 170.085938 198.199219 C 170.976562 199.054688 171.890625 199.898438 172.828125 200.730469 L 172.945312 200.835938 C 173.882812 201.65625 174.9375 202.535156 176.015625 203.378906 L 176.179688 203.507812 C 176.449219 203.683594 176.671875 203.894531 176.929688 204.070312 C 178.019531 204.914062 179.132812 205.722656 180.269531 206.519531 L 180.386719 206.589844 C 180.867188 206.941406 181.382812 207.257812 181.933594 207.597656 C 182.15625 207.738281 182.402344 207.925781 182.636719 208.066406 C 183.46875 208.59375 184.277344 209.097656 185.121094 209.601562 C 185.25 209.660156 185.367188 209.730469 185.496094 209.777344 C 186.199219 210.199219 186.960938 210.621094 187.699219 210.996094 C 187.957031 211.148438 188.203125 211.265625 188.472656 211.417969 C 189 211.675781 189.515625 211.945312 190.007812 212.214844 L 190.253906 212.320312 C 191.308594 212.835938 192.386719 213.316406 193.441406 213.796875 C 193.710938 213.902344 193.933594 213.984375 194.15625 214.089844 C 195.023438 214.464844 195.902344 214.816406 196.78125 215.15625 C 197.167969 215.285156 197.542969 215.449219 197.90625 215.566406 C 198.703125 215.859375 199.546875 216.128906 200.332031 216.410156 L 201.421875 216.761719 C 202.558594 217.113281 203.71875 217.570312 204.925781 217.769531 C 266.90625 227.976562 281.25 180.503906 281.25 180.503906 C 268.335938 198.996094 243.339844 207.808594 216.703125 200.929688 C 215.085938 200.519531 213.914062 200.167969 212.753906 199.792969 L 213.199219 199.921875 C 212.824219 199.816406 212.496094 199.699219 212.132812 199.59375 C 211.324219 199.3125 210.480469 199.042969 209.695312 198.75 L 208.570312 198.328125 C 207.691406 197.976562 206.800781 197.648438 205.945312 197.273438 C 205.675781 197.15625 205.441406 197.074219 205.230469 196.957031 C 204.140625 196.464844 203.027344 195.984375 201.972656 195.457031 L 200.367188 194.625 L 199.441406 194.15625 C 198.726562 193.78125 198.058594 193.394531 197.367188 192.984375 C 197.167969 192.890625 197.015625 192.808594 196.863281 192.703125 L 196.886719 192.714844 C 196.054688 192.199219 195.199219 191.707031 194.402344 191.167969 C 194.132812 191.015625 193.898438 190.839844 193.640625 190.6875 L 192.011719 189.632812 C 190.886719 188.859375 189.785156 188.015625 188.671875 187.207031 C 188.425781 186.984375 188.179688 186.796875 187.933594 186.597656 C 176.226562 177.433594 166.980469 164.917969 162.609375 150.738281 C 157.992188 135.996094 159.011719 119.460938 166.980469 106.042969 L 157.183594 119.859375 C 145.148438 137.050781 145.828125 160.042969 155.191406 178.230469 C 156.902344 181.59375 158.636719 184.429688 160.558594 187.136719 C 162.339844 189.691406 164.308594 192.667969 166.6875 194.71875 C 167.53125 195.65625 168.433594 196.570312 169.382812 197.496094 Z M 169.382812 197.496094 " fill-opacity="1" fill-rule="nonzero"/><path fill="#d9a4fc" d="M 112.78125 234.316406 L 112.746094 234.257812 L 112.699219 234.199219 Z M 112.78125 234.316406 " fill-opacity="1" fill-rule="nonzero"/><path fill="#d9a4fc" d="M 145.265625 228.492188 L 145.335938 228.550781 L 145.359375 228.574219 Z M 145.265625 228.492188 " fill-opacity="1" fill-rule="nonzero"/><path fill="#be63f9" d="M 200.519531 104.90625 C 193.417969 115.277344 192.738281 128.144531 197.625 139.582031 C 202.816406 151.722656 213.445312 161.261719 225.820312 165.773438 C 226.324219 165.972656 226.816406 166.136719 227.34375 166.324219 L 228.035156 166.535156 C 228.75 166.757812 229.488281 167.027344 230.226562 167.191406 C 264.457031 173.765625 273.726562 149.707031 276.210938 146.167969 C 268.054688 157.816406 254.390625 160.605469 237.632812 156.550781 C 235.992188 156.140625 234.644531 155.71875 233.332031 155.214844 L 233.589844 155.296875 C 231.609375 154.605469 230.015625 153.9375 228.46875 153.1875 L 228.761719 153.316406 C 225.5625 151.757812 222.808594 150.070312 220.253906 148.136719 C 205.265625 136.804688 196.007812 115.242188 205.78125 97.664062 Z M 200.519531 104.90625 " fill-opacity="1" fill-rule="nonzero"/></svg>