<svg xmlns="http://www.w3.org/2000/svg" xmlns:xlink="http://www.w3.org/1999/xlink" width="500" zoomAndPan="magnify" viewBox="0 0 375 374.999991" height="500" preserveAspectRatio="xMidYMid meet" version="1.0"><defs><g/></defs><path fill="#000000" d="M 375 375 L 0 375 L 0 0 L 375 0 Z M 2.382812 372.617188 L 372.617188 372.617188 L 372.617188 2.382812 L 2.382812 2.382812 Z M 2.382812 372.617188 " fill-opacity="1" fill-rule="nonzero"/><g fill="#000000" fill-opacity="1"><g transform="translate(48.023047, 200.763254)"><g><path d="M 96.578125 -80.390625 L 96.578125 0 L 88.4375 0 L 88.4375 -64.3125 L 56.84375 -10.21875 L 52.828125 -10.21875 L 21.25 -63.96875 L 21.25 0 L 13.09375 0 L 13.09375 -80.390625 L 20.09375 -80.390625 L 55.015625 -20.78125 L 89.578125 -80.390625 Z M 96.578125 -80.390625 "/></g></g></g><g fill="#000000" fill-opacity="1"><g transform="translate(157.695207, 200.763254)"><g><path d="M 48 0.6875 C 40.039062 0.6875 32.863281 -1.070312 26.46875 -4.59375 C 20.070312 -8.113281 15.054688 -12.992188 11.421875 -19.234375 C 7.785156 -25.472656 5.96875 -32.460938 5.96875 -40.203125 C 5.96875 -47.929688 7.785156 -54.914062 11.421875 -61.15625 C 15.054688 -67.394531 20.085938 -72.273438 26.515625 -75.796875 C 32.953125 -79.316406 40.15625 -81.078125 48.125 -81.078125 C 54.09375 -81.078125 59.601562 -80.082031 64.65625 -78.09375 C 69.707031 -76.101562 73.992188 -73.191406 77.515625 -69.359375 L 72.125 -63.96875 C 65.84375 -70.320312 57.914062 -73.5 48.34375 -73.5 C 41.988281 -73.5 36.207031 -72.039062 31 -69.125 C 25.800781 -66.21875 21.726562 -62.238281 18.78125 -57.1875 C 15.832031 -52.132812 14.359375 -46.472656 14.359375 -40.203125 C 14.359375 -33.921875 15.832031 -28.253906 18.78125 -23.203125 C 21.726562 -18.148438 25.800781 -14.164062 31 -11.25 C 36.207031 -8.34375 41.988281 -6.890625 48.34375 -6.890625 C 57.988281 -6.890625 65.914062 -10.101562 72.125 -16.53125 L 77.515625 -11.140625 C 73.992188 -7.304688 69.6875 -4.375 64.59375 -2.34375 C 59.507812 -0.320312 53.976562 0.6875 48 0.6875 Z M 48 0.6875 "/></g></g></g><g fill="#000000" fill-opacity="1"><g transform="translate(240.265124, 200.763254)"><g><path d="M 63.734375 -41.453125 C 69.015625 -40.304688 73.09375 -38.03125 75.96875 -34.625 C 78.84375 -31.21875 80.28125 -26.832031 80.28125 -21.46875 C 80.28125 -14.582031 77.734375 -9.28125 72.640625 -5.5625 C 67.546875 -1.851562 60.023438 0 50.078125 0 L 13.09375 0 L 13.09375 -80.390625 L 47.78125 -80.390625 C 56.738281 -80.390625 63.6875 -78.585938 68.625 -74.984375 C 73.5625 -71.390625 76.03125 -66.300781 76.03125 -59.71875 C 76.03125 -55.28125 74.9375 -51.507812 72.75 -48.40625 C 70.570312 -45.300781 67.566406 -42.984375 63.734375 -41.453125 Z M 21.59375 -73.390625 L 21.59375 -44.21875 L 47.203125 -44.21875 C 53.710938 -44.21875 58.726562 -45.460938 62.25 -47.953125 C 65.769531 -50.441406 67.53125 -54.054688 67.53125 -58.796875 C 67.53125 -63.546875 65.769531 -67.164062 62.25 -69.65625 C 58.726562 -72.144531 53.710938 -73.390625 47.203125 -73.390625 Z M 49.953125 -7 C 57.148438 -7 62.585938 -8.222656 66.265625 -10.671875 C 69.941406 -13.128906 71.78125 -16.960938 71.78125 -22.171875 C 71.78125 -32.191406 64.503906 -37.203125 49.953125 -37.203125 L 21.59375 -37.203125 L 21.59375 -7 Z M 49.953125 -7 "/></g></g></g><g fill="#000000" fill-opacity="1"><g transform="translate(141.16183, 269.94026)"><g><path d="M 3.265625 -20.09375 L 11.453125 -20.09375 C 13.578125 -20.09375 15.453125 -19.664062 17.078125 -18.8125 C 18.703125 -17.957031 19.960938 -16.769531 20.859375 -15.25 C 21.765625 -13.726562 22.21875 -11.992188 22.21875 -10.046875 C 22.21875 -8.097656 21.765625 -6.359375 20.859375 -4.828125 C 19.960938 -3.304688 18.703125 -2.117188 17.078125 -1.265625 C 15.453125 -0.421875 13.578125 0 11.453125 0 L 3.265625 0 Z M 11.34375 -1.84375 C 13.101562 -1.84375 14.640625 -2.191406 15.953125 -2.890625 C 17.273438 -3.585938 18.300781 -4.550781 19.03125 -5.78125 C 19.757812 -7.019531 20.125 -8.441406 20.125 -10.046875 C 20.125 -11.648438 19.757812 -13.066406 19.03125 -14.296875 C 18.300781 -15.535156 17.273438 -16.503906 15.953125 -17.203125 C 14.640625 -17.898438 13.101562 -18.25 11.34375 -18.25 L 5.390625 -18.25 L 5.390625 -1.84375 Z M 11.34375 -1.84375 "/></g></g></g><g fill="#000000" fill-opacity="1"><g transform="translate(179.719445, 269.94026)"><g><path d="M 17.484375 -1.84375 L 17.484375 0 L 3.265625 0 L 3.265625 -20.09375 L 17.046875 -20.09375 L 17.046875 -18.25 L 5.390625 -18.25 L 5.390625 -11.109375 L 15.78125 -11.109375 L 15.78125 -9.296875 L 5.390625 -9.296875 L 5.390625 -1.84375 Z M 17.484375 -1.84375 "/></g></g></g><g fill="#000000" fill-opacity="1"><g transform="translate(213.769573, 269.94026)"><g><path d="M 19.984375 -20.09375 L 11.078125 0 L 8.984375 0 L 0.09375 -20.09375 L 2.375 -20.09375 L 10.078125 -2.640625 L 17.828125 -20.09375 Z M 19.984375 -20.09375 "/></g></g></g></svg>